<svg xmlns="http://www.w3.org/2000/svg" viewBox="0 0 100 100">
  <rect width="100" height="100" rx="22" fill="#f0e8d1"/>
  <!-- F from uploaded logo, scaled and centered -->
  <svg x="22" y="18" width="56" height="64" viewBox="120 64 135 225" preserveAspectRatio="xMidYMid meet">
    <g fill="#ff0800" fill-opacity="1" stroke="#ff0800" stroke-width="6" stroke-linejoin="round">
      <g transform="translate(120.11134, 286.622775)">
        <path d="M 3.453125 -219.875 C 16.015625 -218.40625 27.425781 -217.253906 37.6875 -216.421875 C 47.945312 -215.585938 57.84375 -215.171875 67.375 -215.171875 C 76.90625 -215.171875 86.800781 -215.585938 97.0625 -216.421875 C 107.320312 -217.253906 118.734375 -218.40625 131.296875 -219.875 C 126.054688 -206.257812 121.757812 -192.75 118.40625 -179.34375 C 115.0625 -165.945312 112.765625 -151.503906 111.515625 -136.015625 C 104.804688 -146.484375 98.519531 -156.164062 92.65625 -165.0625 C 86.800781 -173.96875 80.992188 -181.140625 75.234375 -186.578125 C 69.472656 -192.023438 63.242188 -194.75 56.546875 -194.75 C 53.191406 -194.75 50.203125 -192.492188 47.578125 -187.984375 C 44.960938 -183.484375 42.867188 -177.832031 41.296875 -171.03125 C 39.734375 -164.226562 38.738281 -157.160156 38.3125 -149.828125 C 37.894531 -142.503906 38.210938 -136.117188 39.265625 -130.671875 C 40.515625 -123.546875 42.445312 -118.832031 45.0625 -116.53125 C 47.6875 -114.226562 52.453125 -114.070312 59.359375 -116.0625 C 66.273438 -118.050781 76.539062 -121.875 90.15625 -127.53125 C 89.3125 -120.40625 87.582031 -113.390625 84.96875 -106.484375 C 82.351562 -99.578125 79.054688 -93.398438 75.078125 -87.953125 C 69.421875 -93.609375 64.550781 -97.640625 60.46875 -100.046875 C 56.382812 -102.453125 52.976562 -103.65625 50.25 -103.65625 C 44.8125 -103.65625 41.460938 -101.347656 40.203125 -96.734375 C 38.953125 -92.128906 39.160156 -86.160156 40.828125 -78.828125 C 42.503906 -71.503906 45.019531 -63.65625 48.375 -55.28125 C 51.726562 -46.90625 55.285156 -38.789062 59.046875 -30.9375 C 62.816406 -23.082031 66.164062 -16.378906 69.09375 -10.828125 C 72.03125 -5.285156 73.8125 -1.675781 74.4375 0 C 65.226562 -2.09375 57.007812 -3.503906 49.78125 -4.234375 C 42.5625 -4.972656 35.285156 -4.972656 27.953125 -4.234375 C 20.628906 -3.503906 12.359375 -2.09375 3.140625 0 C 21.566406 -36.226562 30.78125 -72.976562 30.78125 -110.25 C 30.78125 -129.3125 28.476562 -147.894531 23.875 -166 C 19.269531 -184.113281 12.460938 -202.070312 3.453125 -219.875 Z"/>
      </g>
    </g>
  </svg>
</svg>
