<svg xmlns="http://www.w3.org/2000/svg" xmlns:xlink="http://www.w3.org/1999/xlink" zoomAndPan="magnify" viewBox="12 182 336 71" preserveAspectRatio="xMidYMid meet" version="1.0"><defs><g/></defs><g fill="#ffffff" fill-opacity="1"><g transform="translate(28.341109, 207.749986)"><g><path d="M 0.734375 -46.90625 C 3.410156 -46.59375 5.84375 -46.34375 8.03125 -46.15625 C 10.226562 -45.976562 12.34375 -45.890625 14.375 -45.890625 C 16.40625 -45.890625 18.515625 -45.976562 20.703125 -46.15625 C 22.890625 -46.34375 25.320312 -46.59375 28 -46.90625 C 26.882812 -44 25.96875 -41.113281 25.25 -38.25 C 24.539062 -35.394531 24.050781 -32.316406 23.78125 -29.015625 C 22.351562 -31.242188 21.015625 -33.304688 19.765625 -35.203125 C 18.515625 -37.109375 17.273438 -38.640625 16.046875 -39.796875 C 14.816406 -40.960938 13.488281 -41.546875 12.0625 -41.546875 C 11.34375 -41.546875 10.703125 -41.0625 10.140625 -40.09375 C 9.585938 -39.132812 9.144531 -37.925781 8.8125 -36.46875 C 8.476562 -35.019531 8.265625 -33.515625 8.171875 -31.953125 C 8.085938 -30.390625 8.15625 -29.03125 8.375 -27.875 C 8.644531 -26.351562 9.054688 -25.347656 9.609375 -24.859375 C 10.171875 -24.367188 11.1875 -24.332031 12.65625 -24.75 C 14.132812 -25.175781 16.328125 -25.992188 19.234375 -27.203125 C 19.054688 -25.679688 18.6875 -24.179688 18.125 -22.703125 C 17.5625 -21.234375 16.859375 -19.921875 16.015625 -18.765625 C 14.804688 -19.960938 13.765625 -20.816406 12.890625 -21.328125 C 12.023438 -21.847656 11.300781 -22.109375 10.71875 -22.109375 C 9.5625 -22.109375 8.847656 -21.613281 8.578125 -20.625 C 8.304688 -19.644531 8.347656 -18.375 8.703125 -16.8125 C 9.066406 -15.25 9.601562 -13.570312 10.3125 -11.78125 C 11.03125 -10 11.789062 -8.269531 12.59375 -6.59375 C 13.394531 -4.925781 14.109375 -3.5 14.734375 -2.3125 C 15.359375 -1.125 15.738281 -0.351562 15.875 0 C 13.914062 -0.445312 12.164062 -0.75 10.625 -0.90625 C 9.082031 -1.0625 7.53125 -1.0625 5.96875 -0.90625 C 4.40625 -0.75 2.640625 -0.445312 0.671875 0 C 4.597656 -7.726562 6.5625 -15.566406 6.5625 -23.515625 C 6.5625 -27.578125 6.070312 -31.539062 5.09375 -35.40625 C 4.113281 -39.269531 2.660156 -43.101562 0.734375 -46.90625 Z M 0.734375 -46.90625 "/></g></g></g><g fill="#ffffff" fill-opacity="1"><g transform="translate(52.861424, 207.749986)"><g><path d="M 16.484375 -23.984375 C 16.484375 -24.335938 15.976562 -24.796875 14.96875 -25.359375 C 13.96875 -25.921875 12.738281 -26.578125 11.28125 -27.328125 C 9.832031 -28.085938 8.367188 -28.945312 6.890625 -29.90625 C 5.421875 -30.875 4.179688 -31.90625 3.171875 -33 C 2.171875 -34.09375 1.671875 -35.265625 1.671875 -36.515625 C 1.671875 -38.253906 2.070312 -39.804688 2.875 -41.171875 C 3.6875 -42.535156 4.75 -43.6875 6.0625 -44.625 C 7.382812 -45.5625 8.800781 -46.273438 10.3125 -46.765625 C 11.832031 -47.253906 13.285156 -47.5 14.671875 -47.5 C 15.960938 -47.5 17.019531 -47.460938 17.84375 -47.390625 C 18.675781 -47.328125 19.484375 -47.257812 20.265625 -47.1875 C 21.046875 -47.125 21.972656 -47.0625 23.046875 -47 C 24.117188 -46.9375 25.550781 -46.90625 27.34375 -46.90625 C 25.507812 -43.769531 24.15625 -40.785156 23.28125 -37.953125 C 22.40625 -35.117188 21.925781 -31.984375 21.84375 -28.546875 C 20.726562 -31.441406 19.566406 -33.75 18.359375 -35.46875 C 17.148438 -37.195312 15.988281 -38.492188 14.875 -39.359375 C 13.757812 -40.234375 12.734375 -40.816406 11.796875 -41.109375 C 10.859375 -41.398438 10.078125 -41.546875 9.453125 -41.546875 C 8.910156 -41.546875 8.484375 -41.242188 8.171875 -40.640625 C 7.859375 -40.035156 7.632812 -39.328125 7.5 -38.515625 C 7.363281 -37.710938 7.296875 -37.046875 7.296875 -36.515625 C 7.296875 -35.035156 7.675781 -33.757812 8.4375 -32.6875 C 9.195312 -31.625 10.144531 -30.675781 11.28125 -29.84375 C 12.425781 -29.019531 13.554688 -28.257812 14.671875 -27.5625 C 15.785156 -26.875 16.722656 -26.207031 17.484375 -25.5625 C 18.242188 -24.914062 18.625 -24.210938 18.625 -23.453125 C 18.625 -22.421875 17.796875 -21.90625 16.140625 -21.90625 C 15.117188 -21.90625 14.082031 -22.0625 13.03125 -22.375 C 11.976562 -22.6875 10.9375 -22.988281 9.90625 -23.28125 C 8.882812 -23.570312 7.835938 -23.71875 6.765625 -23.71875 C 5.109375 -23.71875 4.28125 -23.113281 4.28125 -21.90625 C 4.28125 -20.96875 4.671875 -19.847656 5.453125 -18.546875 C 6.242188 -17.253906 7.265625 -15.914062 8.515625 -14.53125 C 9.765625 -13.15625 11.125 -11.863281 12.59375 -10.65625 C 14.070312 -9.445312 15.503906 -8.460938 16.890625 -7.703125 C 18.273438 -6.941406 19.476562 -6.5625 20.5 -6.5625 C 21.300781 -6.5625 21.859375 -6.796875 22.171875 -7.265625 C 22.484375 -7.734375 22.640625 -8.367188 22.640625 -9.171875 C 22.640625 -10.378906 22.238281 -11.863281 21.4375 -13.625 C 20.632812 -15.394531 19.648438 -17.175781 18.484375 -18.96875 C 20.453125 -19.320312 22.351562 -19.8125 24.1875 -20.4375 C 26.019531 -21.0625 27.628906 -21.796875 29.015625 -22.640625 C 28.835938 -18.492188 28.320312 -15.078125 27.46875 -12.390625 C 26.625 -9.710938 25.609375 -7.566406 24.421875 -5.953125 C 23.234375 -4.347656 22.003906 -3.132812 20.734375 -2.3125 C 19.460938 -1.488281 18.269531 -0.875 17.15625 -0.46875 C 16.039062 -0.0625 15.164062 0.316406 14.53125 0.671875 C 12.613281 -0.265625 10.828125 -1.523438 9.171875 -3.109375 C 7.523438 -4.703125 6.0625 -6.445312 4.78125 -8.34375 C 3.507812 -10.238281 2.515625 -12.164062 1.796875 -14.125 C 1.085938 -16.09375 0.734375 -17.953125 0.734375 -19.703125 C 0.734375 -21.929688 1.28125 -23.457031 2.375 -24.28125 C 3.46875 -25.113281 4.753906 -25.53125 6.234375 -25.53125 C 7.441406 -25.53125 8.671875 -25.375 9.921875 -25.0625 C 11.171875 -24.75 12.316406 -24.4375 13.359375 -24.125 C 14.410156 -23.8125 15.207031 -23.65625 15.75 -23.65625 C 16.238281 -23.65625 16.484375 -23.765625 16.484375 -23.984375 Z M 16.484375 -23.984375 "/></g></g></g><g fill="#ffffff" fill-opacity="1"><g transform="translate(78.38668, 207.749986)"><g><path d="M 16.484375 -23.984375 C 16.484375 -24.335938 15.976562 -24.796875 14.96875 -25.359375 C 13.96875 -25.921875 12.738281 -26.578125 11.28125 -27.328125 C 9.832031 -28.085938 8.367188 -28.945312 6.890625 -29.90625 C 5.421875 -30.875 4.179688 -31.90625 3.171875 -33 C 2.171875 -34.09375 1.671875 -35.265625 1.671875 -36.515625 C 1.671875 -38.253906 2.070312 -39.804688 2.875 -41.171875 C 3.6875 -42.535156 4.75 -43.6875 6.0625 -44.625 C 7.382812 -45.5625 8.800781 -46.273438 10.3125 -46.765625 C 11.832031 -47.253906 13.285156 -47.5 14.671875 -47.5 C 15.960938 -47.5 17.019531 -47.460938 17.84375 -47.390625 C 18.675781 -47.328125 19.484375 -47.257812 20.265625 -47.1875 C 21.046875 -47.125 21.972656 -47.0625 23.046875 -47 C 24.117188 -46.9375 25.550781 -46.90625 27.34375 -46.90625 C 25.507812 -43.769531 24.15625 -40.785156 23.28125 -37.953125 C 22.40625 -35.117188 21.925781 -31.984375 21.84375 -28.546875 C 20.726562 -31.441406 19.566406 -33.75 18.359375 -35.46875 C 17.148438 -37.195312 15.988281 -38.492188 14.875 -39.359375 C 13.757812 -40.234375 12.734375 -40.816406 11.796875 -41.109375 C 10.859375 -41.398438 10.078125 -41.546875 9.453125 -41.546875 C 8.910156 -41.546875 8.484375 -41.242188 8.171875 -40.640625 C 7.859375 -40.035156 7.632812 -39.328125 7.5 -38.515625 C 7.363281 -37.710938 7.296875 -37.046875 7.296875 -36.515625 C 7.296875 -35.035156 7.675781 -33.757812 8.4375 -32.6875 C 9.195312 -31.625 10.144531 -30.675781 11.28125 -29.84375 C 12.425781 -29.019531 13.554688 -28.257812 14.671875 -27.5625 C 15.785156 -26.875 16.722656 -26.207031 17.484375 -25.5625 C 18.242188 -24.914062 18.625 -24.210938 18.625 -23.453125 C 18.625 -22.421875 17.796875 -21.90625 16.140625 -21.90625 C 15.117188 -21.90625 14.082031 -22.0625 13.03125 -22.375 C 11.976562 -22.6875 10.9375 -22.988281 9.90625 -23.28125 C 8.882812 -23.570312 7.835938 -23.71875 6.765625 -23.71875 C 5.109375 -23.71875 4.28125 -23.113281 4.28125 -21.90625 C 4.28125 -20.96875 4.671875 -19.847656 5.453125 -18.546875 C 6.242188 -17.253906 7.265625 -15.914062 8.515625 -14.53125 C 9.765625 -13.15625 11.125 -11.863281 12.59375 -10.65625 C 14.070312 -9.445312 15.503906 -8.460938 16.890625 -7.703125 C 18.273438 -6.941406 19.476562 -6.5625 20.5 -6.5625 C 21.300781 -6.5625 21.859375 -6.796875 22.171875 -7.265625 C 22.484375 -7.734375 22.640625 -8.367188 22.640625 -9.171875 C 22.640625 -10.378906 22.238281 -11.863281 21.4375 -13.625 C 20.632812 -15.394531 19.648438 -17.175781 18.484375 -18.96875 C 20.453125 -19.320312 22.351562 -19.8125 24.1875 -20.4375 C 26.019531 -21.0625 27.628906 -21.796875 29.015625 -22.640625 C 28.835938 -18.492188 28.320312 -15.078125 27.46875 -12.390625 C 26.625 -9.710938 25.609375 -7.566406 24.421875 -5.953125 C 23.234375 -4.347656 22.003906 -3.132812 20.734375 -2.3125 C 19.460938 -1.488281 18.269531 -0.875 17.15625 -0.46875 C 16.039062 -0.0625 15.164062 0.316406 14.53125 0.671875 C 12.613281 -0.265625 10.828125 -1.523438 9.171875 -3.109375 C 7.523438 -4.703125 6.0625 -6.445312 4.78125 -8.34375 C 3.507812 -10.238281 2.515625 -12.164062 1.796875 -14.125 C 1.085938 -16.09375 0.734375 -17.953125 0.734375 -19.703125 C 0.734375 -21.929688 1.28125 -23.457031 2.375 -24.28125 C 3.46875 -25.113281 4.753906 -25.53125 6.234375 -25.53125 C 7.441406 -25.53125 8.671875 -25.375 9.921875 -25.0625 C 11.171875 -24.75 12.316406 -24.4375 13.359375 -24.125 C 14.410156 -23.8125 15.207031 -23.65625 15.75 -23.65625 C 16.238281 -23.65625 16.484375 -23.765625 16.484375 -23.984375 Z M 16.484375 -23.984375 "/></g></g></g><g fill="#ffffff" fill-opacity="1"><g transform="translate(103.911935, 207.749986)"><g><path d="M 0.671875 0 C 4.828125 -7.59375 6.90625 -15.410156 6.90625 -23.453125 C 6.90625 -31.492188 4.828125 -39.3125 0.671875 -46.90625 C 2.679688 -46.457031 4.398438 -46.15625 5.828125 -46 C 7.253906 -45.84375 8.679688 -45.84375 10.109375 -46 C 11.546875 -46.15625 13.269531 -46.457031 15.28125 -46.90625 C 13.71875 -44.351562 12.460938 -41.601562 11.515625 -38.65625 C 10.578125 -35.707031 9.921875 -32.710938 9.546875 -29.671875 C 9.171875 -26.640625 9.046875 -23.738281 9.171875 -20.96875 C 9.304688 -18.195312 9.65625 -15.71875 10.21875 -13.53125 C 10.78125 -11.34375 11.539062 -9.613281 12.5 -8.34375 C 13.457031 -7.070312 14.5625 -6.4375 15.8125 -6.4375 C 16.4375 -6.4375 17.035156 -6.9375 17.609375 -7.9375 C 18.191406 -8.945312 18.707031 -10.1875 19.15625 -11.65625 C 19.601562 -13.132812 19.960938 -14.609375 20.234375 -16.078125 C 20.503906 -17.554688 20.640625 -18.765625 20.640625 -19.703125 L 21.3125 -19.703125 C 21.3125 -17.910156 21.734375 -15.296875 22.578125 -11.859375 C 23.429688 -8.421875 25.082031 -4.515625 27.53125 -0.140625 C 27.53125 -0.0859375 27.539062 -0.0625 27.5625 -0.0625 C 27.59375 -0.0625 27.609375 -0.0390625 27.609375 0 C 24.796875 -0.351562 22.328125 -0.609375 20.203125 -0.765625 C 18.078125 -0.921875 16.050781 -1 14.125 -1 C 12.207031 -1 10.1875 -0.921875 8.0625 -0.765625 C 5.945312 -0.609375 3.484375 -0.351562 0.671875 0 Z M 0.671875 0 "/></g></g></g><g fill="#ffffff" fill-opacity="1"><g transform="translate(127.963283, 207.749986)"><g/></g></g><g fill="#ffffff" fill-opacity="1"><g transform="translate(140.491313, 207.749986)"><g><path d="M 27 -28.546875 L 26.390625 -28.546875 C 26.390625 -29.878906 26.125 -31.296875 25.59375 -32.796875 C 25.0625 -34.296875 24.378906 -35.710938 23.546875 -37.046875 C 22.722656 -38.390625 21.863281 -39.472656 20.96875 -40.296875 C 20.070312 -41.128906 19.242188 -41.546875 18.484375 -41.546875 C 17.859375 -41.546875 17.457031 -40.851562 17.28125 -39.46875 C 17.101562 -38.082031 17.125 -36.226562 17.34375 -33.90625 C 17.570312 -31.582031 17.953125 -28.96875 18.484375 -26.0625 C 19.023438 -23.15625 19.6875 -20.140625 20.46875 -17.015625 C 21.25 -13.890625 22.097656 -10.863281 23.015625 -7.9375 C 23.929688 -5.007812 24.878906 -2.363281 25.859375 0 C 23.710938 -0.445312 21.757812 -0.75 20 -0.90625 C 18.238281 -1.0625 16.484375 -1.0625 14.734375 -0.90625 C 12.992188 -0.75 11.03125 -0.445312 8.84375 0 C 11.519531 -5.3125 13.347656 -10.445312 14.328125 -15.40625 C 15.316406 -20.363281 15.8125 -25.34375 15.8125 -30.34375 C 15.8125 -31.019531 15.753906 -31.957031 15.640625 -33.15625 C 15.535156 -34.363281 15.3125 -35.601562 14.96875 -36.875 C 14.632812 -38.15625 14.15625 -39.238281 13.53125 -40.125 C 12.90625 -41.019531 12.101562 -41.46875 11.125 -41.46875 C 10.40625 -41.46875 9.789062 -41 9.28125 -40.0625 C 8.769531 -39.125 8.34375 -37.953125 8 -36.546875 C 7.664062 -35.140625 7.410156 -33.707031 7.234375 -32.25 C 7.054688 -30.800781 6.921875 -29.566406 6.828125 -28.546875 L 6.234375 -28.546875 C 6.234375 -30.328125 5.960938 -32.34375 5.421875 -34.59375 C 4.890625 -36.851562 4.207031 -39.078125 3.375 -41.265625 C 2.550781 -43.460938 1.648438 -45.34375 0.671875 -46.90625 C 6.335938 -46.226562 10.898438 -45.890625 14.359375 -45.890625 C 17.828125 -45.890625 20.363281 -45.890625 21.96875 -45.890625 C 23.582031 -45.890625 25.238281 -45.976562 26.9375 -46.15625 C 28.632812 -46.34375 30.507812 -46.59375 32.5625 -46.90625 C 30.726562 -43.769531 29.34375 -40.59375 28.40625 -37.375 C 27.46875 -34.164062 27 -31.222656 27 -28.546875 Z M 27 -28.546875 "/></g></g></g><g fill="#ffffff" fill-opacity="1"><g transform="translate(169.500366, 207.749986)"><g><path d="M 6.90625 -24.59375 C 6.90625 -28.5625 6.390625 -32.332031 5.359375 -35.90625 C 4.328125 -39.476562 2.785156 -43.164062 0.734375 -46.96875 C 2.253906 -46.65625 3.628906 -46.410156 4.859375 -46.234375 C 6.085938 -46.054688 7.28125 -45.96875 8.4375 -45.96875 C 9.601562 -45.96875 10.800781 -46.054688 12.03125 -46.234375 C 13.257812 -46.410156 14.609375 -46.65625 16.078125 -46.96875 C 11.785156 -43.300781 9.640625 -39.257812 9.640625 -34.84375 C 9.640625 -32.5625 10.15625 -30.570312 11.1875 -28.875 C 12.21875 -27.175781 13.46875 -25.867188 14.9375 -24.953125 C 16.414062 -24.035156 17.847656 -23.578125 19.234375 -23.578125 C 20.523438 -23.578125 21.601562 -24 22.46875 -24.84375 C 23.34375 -25.695312 23.78125 -27.039062 23.78125 -28.875 C 23.78125 -30.351562 23.507812 -32.003906 22.96875 -33.828125 C 22.4375 -35.660156 21.789062 -37.492188 21.03125 -39.328125 C 20.28125 -41.160156 19.566406 -42.753906 18.890625 -44.109375 C 18.222656 -45.472656 17.734375 -46.425781 17.421875 -46.96875 C 18.941406 -46.65625 20.316406 -46.410156 21.546875 -46.234375 C 22.773438 -46.054688 23.96875 -45.96875 25.125 -45.96875 C 26.28125 -45.96875 27.472656 -46.054688 28.703125 -46.234375 C 29.929688 -46.410156 31.285156 -46.65625 32.765625 -46.96875 C 30.710938 -43.164062 29.171875 -39.476562 28.140625 -35.90625 C 27.109375 -32.332031 26.59375 -28.5625 26.59375 -24.59375 C 26.59375 -20.65625 27.117188 -16.53125 28.171875 -12.21875 C 29.222656 -7.914062 30.773438 -3.84375 32.828125 0 C 31.304688 -0.351562 29.929688 -0.609375 28.703125 -0.765625 C 27.472656 -0.921875 26.28125 -1 25.125 -1 C 23.96875 -1 22.773438 -0.921875 21.546875 -0.765625 C 20.316406 -0.609375 18.941406 -0.351562 17.421875 0 C 19.515625 -2.050781 20.984375 -4.035156 21.828125 -5.953125 C 22.679688 -7.878906 23.109375 -9.671875 23.109375 -11.328125 C 23.109375 -12.972656 22.773438 -14.507812 22.109375 -15.9375 C 21.441406 -17.375 20.582031 -18.640625 19.53125 -19.734375 C 18.476562 -20.828125 17.367188 -21.675781 16.203125 -22.28125 C 15.046875 -22.882812 13.957031 -23.1875 12.9375 -23.1875 C 11.945312 -23.1875 11.117188 -22.847656 10.453125 -22.171875 C 9.785156 -21.503906 9.453125 -20.390625 9.453125 -18.828125 C 9.453125 -17.398438 9.71875 -15.722656 10.25 -13.796875 C 10.789062 -11.878906 11.425781 -9.957031 12.15625 -8.03125 C 12.894531 -6.113281 13.632812 -4.414062 14.375 -2.9375 C 15.113281 -1.46875 15.679688 -0.488281 16.078125 0 C 14.554688 -0.351562 13.179688 -0.609375 11.953125 -0.765625 C 10.722656 -0.921875 9.53125 -1 8.375 -1 C 7.21875 -1 6.023438 -0.921875 4.796875 -0.765625 C 3.566406 -0.609375 2.191406 -0.351562 0.671875 0 C 2.765625 -3.84375 4.328125 -7.914062 5.359375 -12.21875 C 6.390625 -16.53125 6.90625 -20.65625 6.90625 -24.59375 Z M 6.90625 -24.59375 "/></g></g></g><g fill="#ffffff" fill-opacity="1"><g transform="translate(198.8444, 207.749986)"><g><path d="M 16.484375 -23.984375 C 16.484375 -24.335938 15.976562 -24.796875 14.96875 -25.359375 C 13.96875 -25.921875 12.738281 -26.578125 11.28125 -27.328125 C 9.832031 -28.085938 8.367188 -28.945312 6.890625 -29.90625 C 5.421875 -30.875 4.179688 -31.90625 3.171875 -33 C 2.171875 -34.09375 1.671875 -35.265625 1.671875 -36.515625 C 1.671875 -38.253906 2.070312 -39.804688 2.875 -41.171875 C 3.6875 -42.535156 4.75 -43.6875 6.0625 -44.625 C 7.382812 -45.5625 8.800781 -46.273438 10.3125 -46.765625 C 11.832031 -47.253906 13.285156 -47.5 14.671875 -47.5 C 15.960938 -47.5 17.019531 -47.460938 17.84375 -47.390625 C 18.675781 -47.328125 19.484375 -47.257812 20.265625 -47.1875 C 21.046875 -47.125 21.972656 -47.0625 23.046875 -47 C 24.117188 -46.9375 25.550781 -46.90625 27.34375 -46.90625 C 25.507812 -43.769531 24.15625 -40.785156 23.28125 -37.953125 C 22.40625 -35.117188 21.925781 -31.984375 21.84375 -28.546875 C 20.726562 -31.441406 19.566406 -33.75 18.359375 -35.46875 C 17.148438 -37.195312 15.988281 -38.492188 14.875 -39.359375 C 13.757812 -40.234375 12.734375 -40.816406 11.796875 -41.109375 C 10.859375 -41.398438 10.078125 -41.546875 9.453125 -41.546875 C 8.910156 -41.546875 8.484375 -41.242188 8.171875 -40.640625 C 7.859375 -40.035156 7.632812 -39.328125 7.5 -38.515625 C 7.363281 -37.710938 7.296875 -37.046875 7.296875 -36.515625 C 7.296875 -35.035156 7.675781 -33.757812 8.4375 -32.6875 C 9.195312 -31.625 10.144531 -30.675781 11.28125 -29.84375 C 12.425781 -29.019531 13.554688 -28.257812 14.671875 -27.5625 C 15.785156 -26.875 16.722656 -26.207031 17.484375 -25.5625 C 18.242188 -24.914062 18.625 -24.210938 18.625 -23.453125 C 18.625 -22.421875 17.796875 -21.90625 16.140625 -21.90625 C 15.117188 -21.90625 14.082031 -22.0625 13.03125 -22.375 C 11.976562 -22.6875 10.9375 -22.988281 9.90625 -23.28125 C 8.882812 -23.570312 7.835938 -23.71875 6.765625 -23.71875 C 5.109375 -23.71875 4.28125 -23.113281 4.28125 -21.90625 C 4.28125 -20.96875 4.671875 -19.847656 5.453125 -18.546875 C 6.242188 -17.253906 7.265625 -15.914062 8.515625 -14.53125 C 9.765625 -13.15625 11.125 -11.863281 12.59375 -10.65625 C 14.070312 -9.445312 15.503906 -8.460938 16.890625 -7.703125 C 18.273438 -6.941406 19.476562 -6.5625 20.5 -6.5625 C 21.300781 -6.5625 21.859375 -6.796875 22.171875 -7.265625 C 22.484375 -7.734375 22.640625 -8.367188 22.640625 -9.171875 C 22.640625 -10.378906 22.238281 -11.863281 21.4375 -13.625 C 20.632812 -15.394531 19.648438 -17.175781 18.484375 -18.96875 C 20.453125 -19.320312 22.351562 -19.8125 24.1875 -20.4375 C 26.019531 -21.0625 27.628906 -21.796875 29.015625 -22.640625 C 28.835938 -18.492188 28.320312 -15.078125 27.46875 -12.390625 C 26.625 -9.710938 25.609375 -7.566406 24.421875 -5.953125 C 23.234375 -4.347656 22.003906 -3.132812 20.734375 -2.3125 C 19.460938 -1.488281 18.269531 -0.875 17.15625 -0.46875 C 16.039062 -0.0625 15.164062 0.316406 14.53125 0.671875 C 12.613281 -0.265625 10.828125 -1.523438 9.171875 -3.109375 C 7.523438 -4.703125 6.0625 -6.445312 4.78125 -8.34375 C 3.507812 -10.238281 2.515625 -12.164062 1.796875 -14.125 C 1.085938 -16.09375 0.734375 -17.953125 0.734375 -19.703125 C 0.734375 -21.929688 1.28125 -23.457031 2.375 -24.28125 C 3.46875 -25.113281 4.753906 -25.53125 6.234375 -25.53125 C 7.441406 -25.53125 8.671875 -25.375 9.921875 -25.0625 C 11.171875 -24.75 12.316406 -24.4375 13.359375 -24.125 C 14.410156 -23.8125 15.207031 -23.65625 15.75 -23.65625 C 16.238281 -23.65625 16.484375 -23.765625 16.484375 -23.984375 Z M 16.484375 -23.984375 "/></g></g></g><g fill="#ffffff" fill-opacity="1"><g transform="translate(224.369644, 207.749986)"><g/></g></g><g fill="#ffffff" fill-opacity="1"><g transform="translate(236.897674, 207.749986)"><g><path d="M 15.8125 -21.90625 C 15.363281 -21.90625 14.816406 -21.789062 14.171875 -21.5625 C 13.523438 -21.34375 12.910156 -21.234375 12.328125 -21.234375 C 11.878906 -21.234375 11.441406 -21.351562 11.015625 -21.59375 C 10.597656 -21.84375 10.390625 -22.257812 10.390625 -22.84375 C 10.390625 -23.832031 10.78125 -24.660156 11.5625 -25.328125 C 12.34375 -25.992188 13.253906 -26.617188 14.296875 -27.203125 C 15.347656 -27.785156 16.285156 -28.441406 17.109375 -29.171875 C 17.941406 -29.910156 18.4375 -30.847656 18.59375 -31.984375 C 18.75 -33.128906 18.3125 -34.59375 17.28125 -36.375 C 16.125 -38.382812 14.894531 -39.925781 13.59375 -41 C 12.300781 -42.070312 11.078125 -42.609375 9.921875 -42.609375 C 9.203125 -42.609375 8.6875 -41.945312 8.375 -40.625 C 8.0625 -39.3125 7.914062 -37.503906 7.9375 -35.203125 C 7.957031 -32.910156 8.15625 -30.3125 8.53125 -27.40625 C 8.914062 -24.5 9.476562 -21.457031 10.21875 -18.28125 C 10.957031 -15.113281 11.847656 -11.957031 12.890625 -8.8125 C 13.941406 -5.664062 15.160156 -2.726562 16.546875 0 C 13.554688 -0.664062 10.832031 -1 8.375 -1 C 7.21875 -1 6.023438 -0.921875 4.796875 -0.765625 C 3.566406 -0.609375 2.191406 -0.351562 0.671875 0 C 2.765625 -3.570312 4.378906 -7.390625 5.515625 -11.453125 C 6.660156 -15.515625 7.234375 -19.515625 7.234375 -23.453125 C 7.234375 -27.421875 6.660156 -31.414062 5.515625 -35.4375 C 4.378906 -39.457031 2.785156 -43.28125 0.734375 -46.90625 C 1.671875 -47.125 2.804688 -47.285156 4.140625 -47.390625 C 5.484375 -47.503906 6.875 -47.5625 8.3125 -47.5625 C 10.5 -47.5625 12.738281 -47.382812 15.03125 -47.03125 C 17.332031 -46.675781 19.476562 -46.082031 21.46875 -45.25 C 23.457031 -44.425781 25.066406 -43.300781 26.296875 -41.875 C 27.523438 -40.445312 28.140625 -38.660156 28.140625 -36.515625 C 28.140625 -34.992188 27.632812 -33.660156 26.625 -32.515625 C 25.625 -31.378906 24.351562 -30.375 22.8125 -29.5 C 21.269531 -28.632812 19.691406 -27.84375 18.078125 -27.125 C 16.472656 -26.414062 15.09375 -25.726562 13.9375 -25.0625 C 12.375 -24.207031 11.59375 -23.488281 11.59375 -22.90625 C 11.59375 -22.6875 11.75 -22.578125 12.0625 -22.578125 C 12.550781 -22.578125 13.351562 -22.789062 14.46875 -23.21875 C 15.582031 -23.644531 16.632812 -23.859375 17.625 -23.859375 C 19.09375 -23.859375 20.429688 -23.273438 21.640625 -22.109375 C 22.847656 -20.953125 23.929688 -19.429688 24.890625 -17.546875 C 25.847656 -15.671875 26.695312 -13.648438 27.4375 -11.484375 C 28.175781 -9.316406 28.8125 -7.21875 29.34375 -5.1875 C 29.882812 -3.15625 30.3125 -1.425781 30.625 0 C 28.34375 -0.664062 26.175781 -1 24.125 -1 C 22.019531 -1 19.828125 -0.664062 17.546875 0 C 17.734375 -0.757812 17.914062 -1.851562 18.09375 -3.28125 C 18.269531 -4.707031 18.425781 -6.289062 18.5625 -8.03125 C 18.695312 -9.78125 18.765625 -11.503906 18.765625 -13.203125 C 18.765625 -15.660156 18.550781 -17.722656 18.125 -19.390625 C 17.695312 -21.066406 16.925781 -21.90625 15.8125 -21.90625 Z M 15.8125 -21.90625 "/></g></g></g><g fill="#ffffff" fill-opacity="1"><g transform="translate(264.030835, 207.749986)"><g><path d="M 0.671875 -23.578125 C 0.671875 -28.398438 1.226562 -32.609375 2.34375 -36.203125 C 3.457031 -39.804688 5.019531 -42.597656 7.03125 -44.578125 C 9.039062 -46.566406 11.34375 -47.5625 13.9375 -47.5625 C 16.476562 -47.5625 18.753906 -46.585938 20.765625 -44.640625 C 22.773438 -42.703125 24.347656 -39.957031 25.484375 -36.40625 C 26.628906 -32.863281 27.203125 -28.679688 27.203125 -23.859375 C 27.203125 -19.023438 26.628906 -14.765625 25.484375 -11.078125 C 24.347656 -7.398438 22.773438 -4.519531 20.765625 -2.4375 C 18.753906 -0.363281 16.476562 0.671875 13.9375 0.671875 C 11.382812 0.671875 9.101562 -0.34375 7.09375 -2.375 C 5.09375 -4.40625 3.519531 -7.238281 2.375 -10.875 C 1.238281 -14.519531 0.671875 -18.753906 0.671875 -23.578125 Z M 20.375 -5.296875 C 21.21875 -5.296875 21.828125 -5.773438 22.203125 -6.734375 C 22.585938 -7.691406 22.78125 -8.976562 22.78125 -10.59375 C 22.78125 -13.21875 22.46875 -16.003906 21.84375 -18.953125 C 21.21875 -21.910156 20.367188 -24.785156 19.296875 -27.578125 C 18.222656 -30.367188 17.023438 -32.898438 15.703125 -35.171875 C 14.390625 -37.453125 13.039062 -39.257812 11.65625 -40.59375 C 10.269531 -41.9375 8.953125 -42.609375 7.703125 -42.609375 C 6.992188 -42.609375 6.457031 -42.035156 6.09375 -40.890625 C 5.738281 -39.753906 5.5625 -38.273438 5.5625 -36.453125 C 5.5625 -34.347656 5.785156 -31.929688 6.234375 -29.203125 C 6.679688 -26.484375 7.328125 -23.726562 8.171875 -20.9375 C 9.023438 -18.144531 10.050781 -15.5625 11.25 -13.1875 C 12.457031 -10.820312 13.832031 -8.914062 15.375 -7.46875 C 16.914062 -6.019531 18.582031 -5.296875 20.375 -5.296875 Z M 20.375 -5.296875 "/></g></g></g><g fill="#ffffff" fill-opacity="1"><g transform="translate(287.747203, 207.749986)"><g><path d="M 0.671875 -23.578125 C 0.671875 -28.398438 1.226562 -32.609375 2.34375 -36.203125 C 3.457031 -39.804688 5.019531 -42.597656 7.03125 -44.578125 C 9.039062 -46.566406 11.34375 -47.5625 13.9375 -47.5625 C 16.476562 -47.5625 18.753906 -46.585938 20.765625 -44.640625 C 22.773438 -42.703125 24.347656 -39.957031 25.484375 -36.40625 C 26.628906 -32.863281 27.203125 -28.679688 27.203125 -23.859375 C 27.203125 -19.023438 26.628906 -14.765625 25.484375 -11.078125 C 24.347656 -7.398438 22.773438 -4.519531 20.765625 -2.4375 C 18.753906 -0.363281 16.476562 0.671875 13.9375 0.671875 C 11.382812 0.671875 9.101562 -0.34375 7.09375 -2.375 C 5.09375 -4.40625 3.519531 -7.238281 2.375 -10.875 C 1.238281 -14.519531 0.671875 -18.753906 0.671875 -23.578125 Z M 20.375 -5.296875 C 21.21875 -5.296875 21.828125 -5.773438 22.203125 -6.734375 C 22.585938 -7.691406 22.78125 -8.976562 22.78125 -10.59375 C 22.78125 -13.21875 22.46875 -16.003906 21.84375 -18.953125 C 21.21875 -21.910156 20.367188 -24.785156 19.296875 -27.578125 C 18.222656 -30.367188 17.023438 -32.898438 15.703125 -35.171875 C 14.390625 -37.453125 13.039062 -39.257812 11.65625 -40.59375 C 10.269531 -41.9375 8.953125 -42.609375 7.703125 -42.609375 C 6.992188 -42.609375 6.457031 -42.035156 6.09375 -40.890625 C 5.738281 -39.753906 5.5625 -38.273438 5.5625 -36.453125 C 5.5625 -34.347656 5.785156 -31.929688 6.234375 -29.203125 C 6.679688 -26.484375 7.328125 -23.726562 8.171875 -20.9375 C 9.023438 -18.144531 10.050781 -15.5625 11.25 -13.1875 C 12.457031 -10.820312 13.832031 -8.914062 15.375 -7.46875 C 16.914062 -6.019531 18.582031 -5.296875 20.375 -5.296875 Z M 20.375 -5.296875 "/></g></g></g><g fill="#ffffff" fill-opacity="1"><g transform="translate(311.463571, 207.749986)"><g><path d="M 0.671875 0 C 2.765625 -3.613281 4.378906 -7.441406 5.515625 -11.484375 C 6.660156 -15.523438 7.234375 -19.515625 7.234375 -23.453125 C 7.234375 -27.421875 6.660156 -31.414062 5.515625 -35.4375 C 4.378906 -39.457031 2.765625 -43.28125 0.671875 -46.90625 C 1.023438 -46.90625 1.582031 -46.957031 2.34375 -47.0625 C 3.101562 -47.175781 3.90625 -47.285156 4.75 -47.390625 C 5.601562 -47.503906 6.34375 -47.5625 6.96875 -47.5625 C 9.332031 -47.5625 11.039062 -46.644531 12.09375 -44.8125 C 13.144531 -42.988281 13.671875 -40.757812 13.671875 -38.125 C 13.671875 -36.25 13.789062 -34.203125 14.03125 -31.984375 C 14.28125 -29.773438 14.59375 -27.675781 14.96875 -25.6875 C 15.351562 -23.707031 15.769531 -22.078125 16.21875 -20.796875 C 16.664062 -19.523438 17.109375 -18.890625 17.546875 -18.890625 C 17.992188 -18.890625 18.441406 -19.523438 18.890625 -20.796875 C 19.335938 -22.078125 19.75 -23.707031 20.125 -25.6875 C 20.507812 -27.675781 20.820312 -29.773438 21.0625 -31.984375 C 21.3125 -34.203125 21.4375 -36.25 21.4375 -38.125 C 21.4375 -40.757812 21.972656 -42.988281 23.046875 -44.8125 C 24.117188 -46.644531 25.816406 -47.5625 28.140625 -47.5625 C 28.804688 -47.5625 29.550781 -47.503906 30.375 -47.390625 C 31.207031 -47.285156 32.003906 -47.175781 32.765625 -47.0625 C 33.523438 -46.957031 34.082031 -46.90625 34.4375 -46.90625 C 32.382812 -43.28125 30.773438 -39.457031 29.609375 -35.4375 C 28.453125 -31.414062 27.875 -27.421875 27.875 -23.453125 C 27.875 -19.515625 28.453125 -15.523438 29.609375 -11.484375 C 30.773438 -7.441406 32.382812 -3.613281 34.4375 0 C 32.875 -0.351562 31.441406 -0.609375 30.140625 -0.765625 C 28.847656 -0.921875 27.578125 -1 26.328125 -1 C 25.078125 -1 23.789062 -0.921875 22.46875 -0.765625 C 21.15625 -0.609375 19.71875 -0.351562 18.15625 0 C 20.070312 -3.613281 21.578125 -7.160156 22.671875 -10.640625 C 23.773438 -14.128906 24.570312 -17.367188 25.0625 -20.359375 C 25.550781 -23.359375 25.796875 -25.882812 25.796875 -27.9375 C 25.796875 -29.539062 25.679688 -30.800781 25.453125 -31.71875 C 25.234375 -32.632812 24.898438 -33.09375 24.453125 -33.09375 C 24.003906 -33.09375 23.585938 -32.546875 23.203125 -31.453125 C 22.828125 -30.359375 22.445312 -29.003906 22.0625 -27.390625 C 21.6875 -25.785156 21.285156 -24.179688 20.859375 -22.578125 C 20.441406 -20.972656 19.960938 -19.625 19.421875 -18.53125 C 18.890625 -17.4375 18.265625 -16.890625 17.546875 -16.890625 C 16.835938 -16.890625 16.210938 -17.4375 15.671875 -18.53125 C 15.140625 -19.625 14.660156 -20.972656 14.234375 -22.578125 C 13.804688 -24.179688 13.40625 -25.785156 13.03125 -27.390625 C 12.65625 -29.003906 12.273438 -30.359375 11.890625 -31.453125 C 11.515625 -32.546875 11.101562 -33.09375 10.65625 -33.09375 C 10.207031 -33.09375 9.867188 -32.625 9.640625 -31.6875 C 9.421875 -30.75 9.3125 -29.476562 9.3125 -27.875 C 9.3125 -25.820312 9.554688 -23.296875 10.046875 -20.296875 C 10.535156 -17.304688 11.335938 -14.066406 12.453125 -10.578125 C 13.578125 -7.097656 15.097656 -3.570312 17.015625 0 C 15.410156 -0.351562 13.957031 -0.609375 12.65625 -0.765625 C 11.363281 -0.921875 10.09375 -1 8.84375 -1 C 7.59375 -1 6.304688 -0.921875 4.984375 -0.765625 C 3.671875 -0.609375 2.234375 -0.351562 0.671875 0 Z M 0.671875 0 "/></g></g></g></svg>