<svg xmlns="http://www.w3.org/2000/svg" xmlns:xlink="http://www.w3.org/1999/xlink" width="500" zoomAndPan="magnify" viewBox="0 0 375 374.999991" height="500" preserveAspectRatio="xMidYMid meet" version="1.0"><defs><g/></defs><g fill="#ff0800" fill-opacity="1"><g transform="translate(117.755872, 286.622775)"><g><path d="M 77.265625 -112.453125 C 77.265625 -114.128906 74.910156 -116.273438 70.203125 -118.890625 C 65.492188 -121.503906 59.734375 -124.59375 52.921875 -128.15625 C 46.117188 -131.71875 39.257812 -135.75 32.34375 -140.25 C 25.4375 -144.75 19.628906 -149.5625 14.921875 -154.6875 C 10.210938 -159.820312 7.859375 -165.320312 7.859375 -171.1875 C 7.859375 -179.351562 9.738281 -186.628906 13.5 -193.015625 C 17.269531 -199.398438 22.242188 -204.789062 28.421875 -209.1875 C 34.597656 -213.59375 41.242188 -216.945312 48.359375 -219.25 C 55.484375 -221.550781 62.296875 -222.703125 68.796875 -222.703125 C 74.867188 -222.703125 79.835938 -222.546875 83.703125 -222.234375 C 87.578125 -221.921875 91.347656 -221.601562 95.015625 -221.28125 C 98.679688 -220.96875 103.023438 -220.65625 108.046875 -220.34375 C 113.078125 -220.03125 119.78125 -219.875 128.15625 -219.875 C 119.570312 -205.21875 113.238281 -191.238281 109.15625 -177.9375 C 105.070312 -164.644531 102.820312 -149.9375 102.40625 -133.8125 C 97.164062 -147.425781 91.71875 -158.265625 86.0625 -166.328125 C 80.40625 -174.390625 74.957031 -180.460938 69.71875 -184.546875 C 64.488281 -188.628906 59.675781 -191.347656 55.28125 -192.703125 C 50.882812 -194.066406 47.222656 -194.75 44.296875 -194.75 C 41.773438 -194.75 39.78125 -193.332031 38.3125 -190.5 C 36.851562 -187.675781 35.804688 -184.378906 35.171875 -180.609375 C 34.546875 -176.835938 34.234375 -173.695312 34.234375 -171.1875 C 34.234375 -164.28125 36.015625 -158.3125 39.578125 -153.28125 C 43.140625 -148.257812 47.585938 -143.8125 52.921875 -139.9375 C 58.265625 -136.0625 63.550781 -132.5 68.78125 -129.25 C 74.019531 -126.007812 78.421875 -122.867188 81.984375 -119.828125 C 85.546875 -116.796875 87.328125 -113.5 87.328125 -109.9375 C 87.328125 -105.125 83.453125 -102.71875 75.703125 -102.71875 C 70.878906 -102.71875 66.007812 -103.445312 61.09375 -104.90625 C 56.175781 -106.375 51.304688 -107.785156 46.484375 -109.140625 C 41.671875 -110.503906 36.75 -111.1875 31.71875 -111.1875 C 23.976562 -111.1875 20.109375 -108.363281 20.109375 -102.71875 C 20.109375 -98.320312 21.9375 -93.085938 25.59375 -87.015625 C 29.257812 -80.941406 34.023438 -74.65625 39.890625 -68.15625 C 45.753906 -61.664062 52.140625 -55.59375 59.046875 -49.9375 C 65.960938 -44.289062 72.664062 -39.6875 79.15625 -36.125 C 85.644531 -32.5625 91.300781 -30.78125 96.125 -30.78125 C 99.882812 -30.78125 102.5 -31.878906 103.96875 -34.078125 C 105.4375 -36.273438 106.171875 -39.257812 106.171875 -43.03125 C 106.171875 -48.6875 104.285156 -55.648438 100.515625 -63.921875 C 96.742188 -72.191406 92.132812 -80.515625 86.6875 -88.890625 C 95.90625 -90.566406 104.804688 -92.867188 113.390625 -95.796875 C 121.972656 -98.734375 129.515625 -102.191406 136.015625 -106.171875 C 135.171875 -86.691406 132.757812 -70.671875 128.78125 -58.109375 C 124.800781 -45.546875 120.035156 -35.492188 114.484375 -27.953125 C 108.941406 -20.410156 103.1875 -14.703125 97.21875 -10.828125 C 91.25 -6.960938 85.644531 -4.085938 80.40625 -2.203125 C 75.175781 -0.316406 71.09375 1.460938 68.15625 3.140625 C 59.15625 -1.253906 50.78125 -7.164062 43.03125 -14.59375 C 35.28125 -22.03125 28.421875 -30.195312 22.453125 -39.09375 C 16.484375 -48 11.820312 -57.054688 8.46875 -66.265625 C 5.125 -75.484375 3.453125 -84.175781 3.453125 -92.34375 C 3.453125 -102.8125 6.015625 -109.984375 11.140625 -113.859375 C 16.273438 -117.734375 22.300781 -119.671875 29.21875 -119.671875 C 34.863281 -119.671875 40.617188 -118.9375 46.484375 -117.46875 C 52.347656 -116.007812 57.738281 -114.546875 62.65625 -113.078125 C 67.582031 -111.609375 71.300781 -110.875 73.8125 -110.875 C 76.113281 -110.875 77.265625 -111.398438 77.265625 -112.453125 Z M 77.265625 -112.453125 "/></g></g></g></svg>