<svg xmlns="http://www.w3.org/2000/svg" xmlns:xlink="http://www.w3.org/1999/xlink" width="500" zoomAndPan="magnify" viewBox="0 0 375 374.999991" height="500" preserveAspectRatio="xMidYMid meet" version="1.0"><defs><g/></defs><g fill="#ff0800" fill-opacity="1"><g transform="translate(121.212903, 286.622764)"><g><path d="M 3.140625 0 C 22.617188 -35.601562 32.359375 -72.25 32.359375 -109.9375 C 32.359375 -147.632812 22.617188 -184.28125 3.140625 -219.875 C 12.566406 -217.78125 20.628906 -216.363281 27.328125 -215.625 C 34.023438 -214.894531 40.722656 -214.894531 47.421875 -215.625 C 54.128906 -216.363281 62.191406 -217.78125 71.609375 -219.875 C 64.285156 -207.9375 58.425781 -195.054688 54.03125 -181.234375 C 49.632812 -167.421875 46.546875 -153.394531 44.765625 -139.15625 C 42.984375 -124.914062 42.40625 -111.300781 43.03125 -98.3125 C 43.65625 -85.332031 45.273438 -73.710938 47.890625 -63.453125 C 50.515625 -53.191406 54.078125 -45.078125 58.578125 -39.109375 C 63.078125 -33.140625 68.257812 -30.15625 74.125 -30.15625 C 77.0625 -30.15625 79.890625 -32.507812 82.609375 -37.21875 C 85.328125 -41.9375 87.734375 -47.75 89.828125 -54.65625 C 91.921875 -61.5625 93.597656 -68.46875 94.859375 -75.375 C 96.117188 -82.289062 96.75 -87.945312 96.75 -92.34375 L 99.890625 -92.34375 C 99.890625 -83.96875 101.878906 -71.71875 105.859375 -55.59375 C 109.835938 -39.46875 117.582031 -21.144531 129.09375 -0.625 C 129.09375 -0.414062 129.144531 -0.3125 129.25 -0.3125 C 129.351562 -0.3125 129.40625 -0.207031 129.40625 0 C 116.21875 -1.675781 104.648438 -2.878906 94.703125 -3.609375 C 84.753906 -4.347656 75.273438 -4.71875 66.265625 -4.71875 C 57.265625 -4.71875 47.789062 -4.347656 37.84375 -3.609375 C 27.90625 -2.878906 16.335938 -1.675781 3.140625 0 Z M 3.140625 0 "/></g></g></g></svg>