<svg xmlns="http://www.w3.org/2000/svg" xmlns:xlink="http://www.w3.org/1999/xlink" width="500" zoomAndPan="magnify" viewBox="0 0 375 374.999991" height="500" preserveAspectRatio="xMidYMid meet" version="1.0"><defs><g/><clipPath id="6b08c0f2f9"><rect x="0" width="81" y="0" height="11"/></clipPath></defs><g fill="#ff0800" fill-opacity="1"><g transform="translate(127.344796, 209.491085)"><g/></g></g><g fill="#ff0800" fill-opacity="1"><g transform="translate(140.809639, 209.491085)"><g><path d="M 29.015625 -30.671875 L 28.375 -30.671875 C 28.375 -32.109375 28.082031 -33.628906 27.5 -35.234375 C 26.925781 -36.847656 26.191406 -38.375 25.296875 -39.8125 C 24.410156 -41.25 23.488281 -42.410156 22.53125 -43.296875 C 21.570312 -44.191406 20.6875 -44.640625 19.875 -44.640625 C 19.195312 -44.640625 18.757812 -43.894531 18.5625 -42.40625 C 18.375 -40.914062 18.398438 -38.921875 18.640625 -36.421875 C 18.890625 -33.929688 19.300781 -31.125 19.875 -28 C 20.445312 -24.882812 21.148438 -21.644531 21.984375 -18.28125 C 22.828125 -14.925781 23.738281 -11.675781 24.71875 -8.53125 C 25.707031 -5.382812 26.734375 -2.539062 27.796875 0 C 25.492188 -0.476562 23.390625 -0.800781 21.484375 -0.96875 C 19.585938 -1.132812 17.703125 -1.132812 15.828125 -0.96875 C 13.960938 -0.800781 11.851562 -0.476562 9.5 0 C 12.382812 -5.707031 14.351562 -11.222656 15.40625 -16.546875 C 16.457031 -21.878906 16.984375 -27.234375 16.984375 -32.609375 C 16.984375 -33.335938 16.921875 -34.347656 16.796875 -35.640625 C 16.679688 -36.929688 16.441406 -38.257812 16.078125 -39.625 C 15.722656 -41 15.207031 -42.164062 14.53125 -43.125 C 13.863281 -44.082031 13.003906 -44.5625 11.953125 -44.5625 C 11.179688 -44.5625 10.519531 -44.054688 9.96875 -43.046875 C 9.414062 -42.046875 8.957031 -40.789062 8.59375 -39.28125 C 8.238281 -37.769531 7.960938 -36.234375 7.765625 -34.671875 C 7.578125 -33.109375 7.4375 -31.773438 7.34375 -30.671875 L 6.703125 -30.671875 C 6.703125 -32.585938 6.410156 -34.757812 5.828125 -37.1875 C 5.253906 -39.613281 4.519531 -42 3.625 -44.34375 C 2.738281 -46.695312 1.769531 -48.71875 0.71875 -50.40625 C 6.8125 -49.675781 11.71875 -49.3125 15.4375 -49.3125 C 19.164062 -49.3125 21.890625 -49.3125 23.609375 -49.3125 C 25.335938 -49.3125 27.113281 -49.40625 28.9375 -49.59375 C 30.769531 -49.789062 32.785156 -50.0625 34.984375 -50.40625 C 33.023438 -47.039062 31.539062 -43.628906 30.53125 -40.171875 C 29.519531 -36.710938 29.015625 -33.546875 29.015625 -30.671875 Z M 29.015625 -30.671875 "/></g></g></g><g fill="#ff0800" fill-opacity="1"><g transform="translate(171.985632, 209.491085)"><g><path d="M 7.421875 -26.421875 C 7.421875 -30.691406 6.867188 -34.75 5.765625 -38.59375 C 4.660156 -42.4375 3.003906 -46.394531 0.796875 -50.46875 C 2.421875 -50.132812 3.894531 -49.867188 5.21875 -49.671875 C 6.539062 -49.484375 7.828125 -49.390625 9.078125 -49.390625 C 10.316406 -49.390625 11.597656 -49.484375 12.921875 -49.671875 C 14.242188 -49.867188 15.695312 -50.132812 17.28125 -50.46875 C 12.675781 -46.53125 10.375 -42.1875 10.375 -37.4375 C 10.375 -34.988281 10.925781 -32.851562 12.03125 -31.03125 C 13.132812 -29.207031 14.476562 -27.800781 16.0625 -26.8125 C 17.644531 -25.832031 19.175781 -25.34375 20.65625 -25.34375 C 22.050781 -25.34375 23.21875 -25.796875 24.15625 -26.703125 C 25.09375 -27.617188 25.5625 -29.0625 25.5625 -31.03125 C 25.5625 -32.613281 25.269531 -34.390625 24.6875 -36.359375 C 24.113281 -38.328125 23.421875 -40.296875 22.609375 -42.265625 C 21.796875 -44.234375 21.023438 -45.945312 20.296875 -47.40625 C 19.578125 -48.875 19.050781 -49.894531 18.71875 -50.46875 C 20.351562 -50.132812 21.828125 -49.867188 23.140625 -49.671875 C 24.460938 -49.484375 25.75 -49.390625 27 -49.390625 C 28.25 -49.390625 29.53125 -49.484375 30.84375 -49.671875 C 32.164062 -49.867188 33.617188 -50.132812 35.203125 -50.46875 C 32.992188 -46.394531 31.335938 -42.4375 30.234375 -38.59375 C 29.128906 -34.75 28.578125 -30.691406 28.578125 -26.421875 C 28.578125 -22.203125 29.140625 -17.773438 30.265625 -13.140625 C 31.398438 -8.503906 33.070312 -4.125 35.28125 0 C 33.644531 -0.382812 32.164062 -0.660156 30.84375 -0.828125 C 29.53125 -0.992188 28.25 -1.078125 27 -1.078125 C 25.75 -1.078125 24.460938 -0.992188 23.140625 -0.828125 C 21.828125 -0.660156 20.351562 -0.382812 18.71875 0 C 20.976562 -2.207031 22.5625 -4.34375 23.46875 -6.40625 C 24.382812 -8.46875 24.84375 -10.390625 24.84375 -12.171875 C 24.84375 -13.941406 24.484375 -15.59375 23.765625 -17.125 C 23.046875 -18.664062 22.117188 -20.023438 20.984375 -21.203125 C 19.859375 -22.378906 18.671875 -23.289062 17.421875 -23.9375 C 16.171875 -24.582031 14.992188 -24.90625 13.890625 -24.90625 C 12.835938 -24.90625 11.953125 -24.546875 11.234375 -23.828125 C 10.515625 -23.109375 10.15625 -21.910156 10.15625 -20.234375 C 10.15625 -18.691406 10.441406 -16.890625 11.015625 -14.828125 C 11.585938 -12.765625 12.269531 -10.703125 13.0625 -8.640625 C 13.851562 -6.578125 14.644531 -4.753906 15.4375 -3.171875 C 16.226562 -1.585938 16.84375 -0.53125 17.28125 0 C 15.644531 -0.382812 14.164062 -0.660156 12.84375 -0.828125 C 11.53125 -0.992188 10.25 -1.078125 9 -1.078125 C 7.75 -1.078125 6.460938 -0.992188 5.140625 -0.828125 C 3.828125 -0.660156 2.351562 -0.382812 0.71875 0 C 2.976562 -4.125 4.660156 -8.503906 5.765625 -13.140625 C 6.867188 -17.773438 7.421875 -22.203125 7.421875 -26.421875 Z M 7.421875 -26.421875 "/></g></g></g><g fill="#ff0800" fill-opacity="1"><g transform="translate(203.521621, 209.491085)"><g><path d="M 17.71875 -25.78125 C 17.71875 -26.164062 17.175781 -26.65625 16.09375 -27.25 C 15.007812 -27.851562 13.6875 -28.5625 12.125 -29.375 C 10.570312 -30.1875 9.003906 -31.109375 7.421875 -32.140625 C 5.835938 -33.179688 4.503906 -34.285156 3.421875 -35.453125 C 2.335938 -36.628906 1.796875 -37.890625 1.796875 -39.234375 C 1.796875 -41.109375 2.226562 -42.773438 3.09375 -44.234375 C 3.957031 -45.703125 5.097656 -46.941406 6.515625 -47.953125 C 7.929688 -48.960938 9.453125 -49.726562 11.078125 -50.25 C 12.710938 -50.78125 14.273438 -51.046875 15.765625 -51.046875 C 17.160156 -51.046875 18.300781 -51.007812 19.1875 -50.9375 C 20.070312 -50.863281 20.9375 -50.789062 21.78125 -50.71875 C 22.625 -50.644531 23.617188 -50.570312 24.765625 -50.5 C 25.921875 -50.4375 27.457031 -50.40625 29.375 -50.40625 C 27.40625 -47.039062 25.953125 -43.832031 25.015625 -40.78125 C 24.078125 -37.738281 23.5625 -34.367188 23.46875 -30.671875 C 22.269531 -33.796875 21.019531 -36.28125 19.71875 -38.125 C 18.425781 -39.96875 17.179688 -41.359375 15.984375 -42.296875 C 14.785156 -43.234375 13.679688 -43.859375 12.671875 -44.171875 C 11.660156 -44.484375 10.820312 -44.640625 10.15625 -44.640625 C 9.570312 -44.640625 9.113281 -44.316406 8.78125 -43.671875 C 8.445312 -43.023438 8.207031 -42.269531 8.0625 -41.40625 C 7.914062 -40.539062 7.84375 -39.816406 7.84375 -39.234375 C 7.84375 -37.648438 8.25 -36.28125 9.0625 -35.125 C 9.882812 -33.976562 10.90625 -32.960938 12.125 -32.078125 C 13.351562 -31.191406 14.566406 -30.375 15.765625 -29.625 C 16.960938 -28.882812 17.96875 -28.164062 18.78125 -27.46875 C 19.601562 -26.769531 20.015625 -26.015625 20.015625 -25.203125 C 20.015625 -24.097656 19.128906 -23.546875 17.359375 -23.546875 C 16.253906 -23.546875 15.132812 -23.710938 14 -24.046875 C 12.875 -24.378906 11.757812 -24.703125 10.65625 -25.015625 C 9.550781 -25.328125 8.421875 -25.484375 7.265625 -25.484375 C 5.492188 -25.484375 4.609375 -24.835938 4.609375 -23.546875 C 4.609375 -22.535156 5.023438 -21.332031 5.859375 -19.9375 C 6.703125 -18.550781 7.796875 -17.113281 9.140625 -15.625 C 10.484375 -14.132812 11.945312 -12.738281 13.53125 -11.4375 C 15.113281 -10.144531 16.648438 -9.09375 18.140625 -8.28125 C 19.628906 -7.46875 20.925781 -7.0625 22.03125 -7.0625 C 22.894531 -7.0625 23.492188 -7.3125 23.828125 -7.8125 C 24.171875 -8.3125 24.34375 -8.992188 24.34375 -9.859375 C 24.34375 -11.160156 23.910156 -12.757812 23.046875 -14.65625 C 22.179688 -16.550781 21.125 -18.457031 19.875 -20.375 C 21.988281 -20.757812 24.023438 -21.285156 25.984375 -21.953125 C 27.953125 -22.628906 29.679688 -23.425781 31.171875 -24.34375 C 30.984375 -19.875 30.429688 -16.195312 29.515625 -13.3125 C 28.609375 -10.4375 27.519531 -8.132812 26.25 -6.40625 C 24.976562 -4.675781 23.65625 -3.367188 22.28125 -2.484375 C 20.914062 -1.597656 19.628906 -0.9375 18.421875 -0.5 C 17.222656 -0.0703125 16.289062 0.332031 15.625 0.71875 C 13.5625 -0.289062 11.640625 -1.644531 9.859375 -3.34375 C 8.085938 -5.050781 6.515625 -6.925781 5.140625 -8.96875 C 3.773438 -11.007812 2.707031 -13.082031 1.9375 -15.1875 C 1.175781 -17.300781 0.796875 -19.296875 0.796875 -21.171875 C 0.796875 -23.566406 1.378906 -25.207031 2.546875 -26.09375 C 3.722656 -26.988281 5.109375 -27.4375 6.703125 -27.4375 C 7.992188 -27.4375 9.3125 -27.265625 10.65625 -26.921875 C 12 -26.585938 13.234375 -26.253906 14.359375 -25.921875 C 15.492188 -25.585938 16.347656 -25.421875 16.921875 -25.421875 C 17.453125 -25.421875 17.71875 -25.539062 17.71875 -25.78125 Z M 17.71875 -25.78125 "/></g></g></g><g transform="matrix(1, 0, 0, 1, 150, 286)"><g clip-path="url(#6b08c0f2f9)"><g fill="#ff0800" fill-opacity="1"><g transform="translate(1.088099, 8.538225)"><g><path d="M 3.6875 -0.9375 C 3.820312 -0.9375 3.9375 -0.890625 4.03125 -0.796875 C 4.125 -0.710938 4.171875 -0.601562 4.171875 -0.46875 C 4.171875 -0.332031 4.125 -0.21875 4.03125 -0.125 C 3.9375 -0.0390625 3.820312 0 3.6875 0 L 1.09375 0 C 0.945312 0 0.828125 -0.046875 0.734375 -0.140625 C 0.640625 -0.234375 0.59375 -0.347656 0.59375 -0.484375 L 0.59375 -5.109375 C 0.59375 -5.242188 0.640625 -5.359375 0.734375 -5.453125 C 0.835938 -5.546875 0.960938 -5.59375 1.109375 -5.59375 C 1.234375 -5.59375 1.34375 -5.546875 1.4375 -5.453125 C 1.539062 -5.359375 1.59375 -5.242188 1.59375 -5.109375 L 1.59375 -0.796875 L 1.421875 -0.9375 Z M 3.6875 -0.9375 "/></g></g></g><g fill="#ff0800" fill-opacity="1"><g transform="translate(5.104191, 8.538225)"><g><path d="M 1.09375 -5.59375 L 3.765625 -5.59375 C 3.898438 -5.59375 4.015625 -5.546875 4.109375 -5.453125 C 4.203125 -5.367188 4.25 -5.257812 4.25 -5.125 C 4.25 -4.988281 4.203125 -4.878906 4.109375 -4.796875 C 4.015625 -4.722656 3.898438 -4.6875 3.765625 -4.6875 L 1.53125 -4.6875 L 1.59375 -4.8125 L 1.59375 -3.25 L 1.53125 -3.3125 L 3.40625 -3.3125 C 3.539062 -3.3125 3.65625 -3.269531 3.75 -3.1875 C 3.84375 -3.101562 3.890625 -2.988281 3.890625 -2.84375 C 3.890625 -2.707031 3.84375 -2.597656 3.75 -2.515625 C 3.65625 -2.441406 3.539062 -2.40625 3.40625 -2.40625 L 1.5625 -2.40625 L 1.59375 -2.46875 L 1.59375 -0.84375 L 1.53125 -0.921875 L 3.765625 -0.921875 C 3.898438 -0.921875 4.015625 -0.875 4.109375 -0.78125 C 4.203125 -0.6875 4.25 -0.578125 4.25 -0.453125 C 4.25 -0.316406 4.203125 -0.207031 4.109375 -0.125 C 4.015625 -0.0390625 3.898438 0 3.765625 0 L 1.09375 0 C 0.945312 0 0.828125 -0.046875 0.734375 -0.140625 C 0.640625 -0.234375 0.59375 -0.347656 0.59375 -0.484375 L 0.59375 -5.109375 C 0.59375 -5.242188 0.640625 -5.359375 0.734375 -5.453125 C 0.828125 -5.546875 0.945312 -5.59375 1.09375 -5.59375 Z M 1.09375 -5.59375 "/></g></g></g><g fill="#ff0800" fill-opacity="1"><g transform="translate(9.20028, 8.538225)"><g><path d="M 2.65625 -4.34375 L 0.921875 -0.28125 C 0.890625 -0.175781 0.832031 -0.09375 0.75 -0.03125 C 0.675781 0.0195312 0.59375 0.046875 0.5 0.046875 C 0.351562 0.046875 0.242188 0.00390625 0.171875 -0.078125 C 0.109375 -0.160156 0.078125 -0.257812 0.078125 -0.375 C 0.078125 -0.425781 0.0859375 -0.476562 0.109375 -0.53125 L 2.09375 -5.3125 C 2.132812 -5.414062 2.195312 -5.492188 2.28125 -5.546875 C 2.375 -5.609375 2.472656 -5.632812 2.578125 -5.625 C 2.671875 -5.625 2.757812 -5.597656 2.84375 -5.546875 C 2.925781 -5.492188 2.988281 -5.414062 3.03125 -5.3125 L 4.984375 -0.625 C 5.015625 -0.550781 5.03125 -0.488281 5.03125 -0.4375 C 5.03125 -0.289062 4.984375 -0.171875 4.890625 -0.078125 C 4.796875 0.00390625 4.691406 0.046875 4.578125 0.046875 C 4.484375 0.046875 4.394531 0.015625 4.3125 -0.046875 C 4.238281 -0.109375 4.179688 -0.1875 4.140625 -0.28125 L 2.421875 -4.296875 Z M 1.171875 -1.25 L 1.609375 -2.171875 L 3.78125 -2.171875 L 3.921875 -1.25 Z M 1.171875 -1.25 "/></g></g></g><g fill="#ff0800" fill-opacity="1"><g transform="translate(13.832388, 8.538225)"><g><path d="M 3 -5.59375 C 3.382812 -5.59375 3.722656 -5.519531 4.015625 -5.375 C 4.316406 -5.238281 4.570312 -5.039062 4.78125 -4.78125 C 4.988281 -4.519531 5.144531 -4.21875 5.25 -3.875 C 5.351562 -3.539062 5.40625 -3.179688 5.40625 -2.796875 C 5.40625 -2.285156 5.3125 -1.816406 5.125 -1.390625 C 4.9375 -0.960938 4.664062 -0.625 4.3125 -0.375 C 3.957031 -0.125 3.519531 0 3 0 L 1.09375 0 C 0.945312 0 0.828125 -0.046875 0.734375 -0.140625 C 0.640625 -0.234375 0.59375 -0.347656 0.59375 -0.484375 L 0.59375 -5.109375 C 0.59375 -5.242188 0.640625 -5.359375 0.734375 -5.453125 C 0.828125 -5.546875 0.945312 -5.59375 1.09375 -5.59375 Z M 2.921875 -0.921875 C 3.253906 -0.921875 3.523438 -1.003906 3.734375 -1.171875 C 3.953125 -1.347656 4.109375 -1.578125 4.203125 -1.859375 C 4.304688 -2.148438 4.359375 -2.460938 4.359375 -2.796875 C 4.359375 -3.046875 4.328125 -3.285156 4.265625 -3.515625 C 4.210938 -3.742188 4.128906 -3.941406 4.015625 -4.109375 C 3.898438 -4.285156 3.75 -4.425781 3.5625 -4.53125 C 3.382812 -4.632812 3.171875 -4.6875 2.921875 -4.6875 L 1.515625 -4.6875 L 1.59375 -4.75 L 1.59375 -0.828125 L 1.546875 -0.921875 Z M 2.921875 -0.921875 "/></g></g></g><g fill="#ff0800" fill-opacity="1"><g transform="translate(19.072504, 8.538225)"><g/></g></g><g fill="#ff0800" fill-opacity="1"><g transform="translate(20.832556, 8.538225)"><g><path d="M 6.890625 -5.625 C 7.015625 -5.625 7.132812 -5.578125 7.25 -5.484375 C 7.363281 -5.390625 7.421875 -5.265625 7.421875 -5.109375 C 7.421875 -5.054688 7.410156 -5 7.390625 -4.9375 L 5.8125 -0.296875 C 5.78125 -0.203125 5.722656 -0.128906 5.640625 -0.078125 C 5.554688 -0.0351562 5.472656 -0.0078125 5.390625 0 C 5.296875 0 5.203125 -0.0234375 5.109375 -0.078125 C 5.023438 -0.128906 4.957031 -0.207031 4.90625 -0.3125 L 3.734375 -3 L 3.796875 -2.953125 L 2.625 -0.3125 C 2.582031 -0.207031 2.515625 -0.128906 2.421875 -0.078125 C 2.335938 -0.0234375 2.25 0 2.15625 0 C 2.070312 -0.0078125 1.988281 -0.0351562 1.90625 -0.078125 C 1.820312 -0.128906 1.765625 -0.203125 1.734375 -0.296875 L 0.15625 -4.9375 C 0.132812 -5 0.125 -5.054688 0.125 -5.109375 C 0.125 -5.265625 0.179688 -5.390625 0.296875 -5.484375 C 0.410156 -5.578125 0.53125 -5.625 0.65625 -5.625 C 0.757812 -5.625 0.851562 -5.597656 0.9375 -5.546875 C 1.03125 -5.492188 1.09375 -5.414062 1.125 -5.3125 L 2.390625 -1.453125 L 2.21875 -1.46875 L 3.359375 -4.1875 C 3.398438 -4.289062 3.457031 -4.367188 3.53125 -4.421875 C 3.613281 -4.472656 3.707031 -4.5 3.8125 -4.5 C 3.90625 -4.5 3.992188 -4.472656 4.078125 -4.421875 C 4.160156 -4.367188 4.21875 -4.289062 4.25 -4.1875 L 5.296875 -1.578125 L 5.171875 -1.5 L 6.421875 -5.3125 C 6.453125 -5.414062 6.515625 -5.492188 6.609375 -5.546875 C 6.703125 -5.597656 6.796875 -5.625 6.890625 -5.625 Z M 6.890625 -5.625 "/></g></g></g><g fill="#ff0800" fill-opacity="1"><g transform="translate(27.89671, 8.538225)"><g><path d="M 1.59375 -0.484375 C 1.59375 -0.347656 1.539062 -0.234375 1.4375 -0.140625 C 1.34375 -0.046875 1.226562 0 1.09375 0 C 0.945312 0 0.828125 -0.046875 0.734375 -0.140625 C 0.640625 -0.234375 0.59375 -0.347656 0.59375 -0.484375 L 0.59375 -5.109375 C 0.59375 -5.242188 0.640625 -5.359375 0.734375 -5.453125 C 0.835938 -5.546875 0.960938 -5.59375 1.109375 -5.59375 C 1.234375 -5.59375 1.34375 -5.546875 1.4375 -5.453125 C 1.539062 -5.359375 1.59375 -5.242188 1.59375 -5.109375 Z M 1.59375 -0.484375 "/></g></g></g><g fill="#ff0800" fill-opacity="1"><g transform="translate(29.616753, 8.538225)"><g><path d="M 2.5 0 C 2.34375 0 2.21875 -0.046875 2.125 -0.140625 C 2.03125 -0.234375 1.984375 -0.347656 1.984375 -0.484375 L 1.984375 -5.125 L 3.03125 -5.125 L 3.03125 -0.484375 C 3.03125 -0.347656 2.976562 -0.234375 2.875 -0.140625 C 2.78125 -0.046875 2.65625 0 2.5 0 Z M 0.734375 -4.6875 C 0.585938 -4.6875 0.46875 -4.726562 0.375 -4.8125 C 0.28125 -4.894531 0.234375 -5.003906 0.234375 -5.140625 C 0.234375 -5.285156 0.28125 -5.394531 0.375 -5.46875 C 0.46875 -5.550781 0.585938 -5.59375 0.734375 -5.59375 L 4.28125 -5.59375 C 4.414062 -5.59375 4.53125 -5.550781 4.625 -5.46875 C 4.71875 -5.382812 4.765625 -5.273438 4.765625 -5.140625 C 4.765625 -4.992188 4.71875 -4.878906 4.625 -4.796875 C 4.53125 -4.722656 4.414062 -4.6875 4.28125 -4.6875 Z M 0.734375 -4.6875 "/></g></g></g><g fill="#ff0800" fill-opacity="1"><g transform="translate(34.144855, 8.538225)"><g><path d="M 1.109375 -5.59375 C 1.234375 -5.59375 1.34375 -5.546875 1.4375 -5.453125 C 1.539062 -5.359375 1.59375 -5.242188 1.59375 -5.109375 L 1.59375 -0.484375 C 1.59375 -0.347656 1.539062 -0.234375 1.4375 -0.140625 C 1.34375 -0.046875 1.226562 0 1.09375 0 C 0.945312 0 0.828125 -0.046875 0.734375 -0.140625 C 0.640625 -0.234375 0.59375 -0.347656 0.59375 -0.484375 L 0.59375 -5.109375 C 0.59375 -5.242188 0.640625 -5.359375 0.734375 -5.453125 C 0.835938 -5.546875 0.960938 -5.59375 1.109375 -5.59375 Z M 4.65625 -5.59375 C 4.800781 -5.59375 4.921875 -5.546875 5.015625 -5.453125 C 5.109375 -5.359375 5.15625 -5.242188 5.15625 -5.109375 L 5.15625 -0.484375 C 5.15625 -0.347656 5.109375 -0.234375 5.015625 -0.140625 C 4.921875 -0.046875 4.796875 0 4.640625 0 C 4.515625 0 4.398438 -0.046875 4.296875 -0.140625 C 4.203125 -0.234375 4.15625 -0.347656 4.15625 -0.484375 L 4.15625 -5.109375 C 4.15625 -5.242188 4.203125 -5.359375 4.296875 -5.453125 C 4.398438 -5.546875 4.519531 -5.59375 4.65625 -5.59375 Z M 1.09375 -3.265625 L 4.65625 -3.265625 L 4.65625 -2.359375 L 1.09375 -2.359375 Z M 1.09375 -3.265625 "/></g></g></g><g fill="#ff0800" fill-opacity="1"><g transform="translate(39.416975, 8.538225)"><g/></g></g><g fill="#ff0800" fill-opacity="1"><g transform="translate(41.177027, 8.538225)"><g><path d="M 1.59375 -0.484375 C 1.59375 -0.347656 1.539062 -0.234375 1.4375 -0.140625 C 1.34375 -0.046875 1.226562 0 1.09375 0 C 0.945312 0 0.828125 -0.046875 0.734375 -0.140625 C 0.640625 -0.234375 0.59375 -0.347656 0.59375 -0.484375 L 0.59375 -5.109375 C 0.59375 -5.242188 0.640625 -5.359375 0.734375 -5.453125 C 0.835938 -5.546875 0.960938 -5.59375 1.109375 -5.59375 C 1.234375 -5.59375 1.34375 -5.546875 1.4375 -5.453125 C 1.539062 -5.359375 1.59375 -5.242188 1.59375 -5.109375 Z M 1.59375 -0.484375 "/></g></g></g><g fill="#ff0800" fill-opacity="1"><g transform="translate(42.89707, 8.538225)"><g><path d="M 4.84375 -5.59375 C 4.976562 -5.59375 5.082031 -5.550781 5.15625 -5.46875 C 5.238281 -5.382812 5.28125 -5.28125 5.28125 -5.15625 L 5.28125 -0.484375 C 5.28125 -0.347656 5.234375 -0.234375 5.140625 -0.140625 C 5.046875 -0.046875 4.929688 0 4.796875 0 C 4.722656 0 4.648438 -0.0078125 4.578125 -0.03125 C 4.503906 -0.0625 4.453125 -0.0976562 4.421875 -0.140625 L 1.265625 -4.125 L 1.484375 -4.25 L 1.484375 -0.453125 C 1.484375 -0.316406 1.441406 -0.207031 1.359375 -0.125 C 1.273438 -0.0390625 1.164062 0 1.03125 0 C 0.90625 0 0.800781 -0.0390625 0.71875 -0.125 C 0.632812 -0.207031 0.59375 -0.316406 0.59375 -0.453125 L 0.59375 -5.109375 C 0.59375 -5.242188 0.640625 -5.359375 0.734375 -5.453125 C 0.828125 -5.546875 0.945312 -5.59375 1.09375 -5.59375 C 1.164062 -5.59375 1.238281 -5.578125 1.3125 -5.546875 C 1.394531 -5.523438 1.457031 -5.484375 1.5 -5.421875 L 4.546875 -1.53125 L 4.40625 -1.4375 L 4.40625 -5.15625 C 4.40625 -5.28125 4.441406 -5.382812 4.515625 -5.46875 C 4.597656 -5.550781 4.707031 -5.59375 4.84375 -5.59375 Z M 4.84375 -5.59375 "/></g></g></g><g fill="#ff0800" fill-opacity="1"><g transform="translate(48.297192, 8.538225)"><g><path d="M 2.5 0 C 2.34375 0 2.21875 -0.046875 2.125 -0.140625 C 2.03125 -0.234375 1.984375 -0.347656 1.984375 -0.484375 L 1.984375 -5.125 L 3.03125 -5.125 L 3.03125 -0.484375 C 3.03125 -0.347656 2.976562 -0.234375 2.875 -0.140625 C 2.78125 -0.046875 2.65625 0 2.5 0 Z M 0.734375 -4.6875 C 0.585938 -4.6875 0.46875 -4.726562 0.375 -4.8125 C 0.28125 -4.894531 0.234375 -5.003906 0.234375 -5.140625 C 0.234375 -5.285156 0.28125 -5.394531 0.375 -5.46875 C 0.46875 -5.550781 0.585938 -5.59375 0.734375 -5.59375 L 4.28125 -5.59375 C 4.414062 -5.59375 4.53125 -5.550781 4.625 -5.46875 C 4.71875 -5.382812 4.765625 -5.273438 4.765625 -5.140625 C 4.765625 -4.992188 4.71875 -4.878906 4.625 -4.796875 C 4.53125 -4.722656 4.414062 -4.6875 4.28125 -4.6875 Z M 0.734375 -4.6875 "/></g></g></g><g fill="#ff0800" fill-opacity="1"><g transform="translate(52.825294, 8.538225)"><g><path d="M 1.09375 -5.59375 L 3.765625 -5.59375 C 3.898438 -5.59375 4.015625 -5.546875 4.109375 -5.453125 C 4.203125 -5.367188 4.25 -5.257812 4.25 -5.125 C 4.25 -4.988281 4.203125 -4.878906 4.109375 -4.796875 C 4.015625 -4.722656 3.898438 -4.6875 3.765625 -4.6875 L 1.53125 -4.6875 L 1.59375 -4.8125 L 1.59375 -3.25 L 1.53125 -3.3125 L 3.40625 -3.3125 C 3.539062 -3.3125 3.65625 -3.269531 3.75 -3.1875 C 3.84375 -3.101562 3.890625 -2.988281 3.890625 -2.84375 C 3.890625 -2.707031 3.84375 -2.597656 3.75 -2.515625 C 3.65625 -2.441406 3.539062 -2.40625 3.40625 -2.40625 L 1.5625 -2.40625 L 1.59375 -2.46875 L 1.59375 -0.84375 L 1.53125 -0.921875 L 3.765625 -0.921875 C 3.898438 -0.921875 4.015625 -0.875 4.109375 -0.78125 C 4.203125 -0.6875 4.25 -0.578125 4.25 -0.453125 C 4.25 -0.316406 4.203125 -0.207031 4.109375 -0.125 C 4.015625 -0.0390625 3.898438 0 3.765625 0 L 1.09375 0 C 0.945312 0 0.828125 -0.046875 0.734375 -0.140625 C 0.640625 -0.234375 0.59375 -0.347656 0.59375 -0.484375 L 0.59375 -5.109375 C 0.59375 -5.242188 0.640625 -5.359375 0.734375 -5.453125 C 0.828125 -5.546875 0.945312 -5.59375 1.09375 -5.59375 Z M 1.09375 -5.59375 "/></g></g></g><g fill="#ff0800" fill-opacity="1"><g transform="translate(56.921384, 8.538225)"><g><path d="M 4.84375 -5.59375 C 4.976562 -5.59375 5.082031 -5.550781 5.15625 -5.46875 C 5.238281 -5.382812 5.28125 -5.28125 5.28125 -5.15625 L 5.28125 -0.484375 C 5.28125 -0.347656 5.234375 -0.234375 5.140625 -0.140625 C 5.046875 -0.046875 4.929688 0 4.796875 0 C 4.722656 0 4.648438 -0.0078125 4.578125 -0.03125 C 4.503906 -0.0625 4.453125 -0.0976562 4.421875 -0.140625 L 1.265625 -4.125 L 1.484375 -4.25 L 1.484375 -0.453125 C 1.484375 -0.316406 1.441406 -0.207031 1.359375 -0.125 C 1.273438 -0.0390625 1.164062 0 1.03125 0 C 0.90625 0 0.800781 -0.0390625 0.71875 -0.125 C 0.632812 -0.207031 0.59375 -0.316406 0.59375 -0.453125 L 0.59375 -5.109375 C 0.59375 -5.242188 0.640625 -5.359375 0.734375 -5.453125 C 0.828125 -5.546875 0.945312 -5.59375 1.09375 -5.59375 C 1.164062 -5.59375 1.238281 -5.578125 1.3125 -5.546875 C 1.394531 -5.523438 1.457031 -5.484375 1.5 -5.421875 L 4.546875 -1.53125 L 4.40625 -1.4375 L 4.40625 -5.15625 C 4.40625 -5.28125 4.441406 -5.382812 4.515625 -5.46875 C 4.597656 -5.550781 4.707031 -5.59375 4.84375 -5.59375 Z M 4.84375 -5.59375 "/></g></g></g><g fill="#ff0800" fill-opacity="1"><g transform="translate(62.321506, 8.538225)"><g><path d="M 2.5 0 C 2.34375 0 2.21875 -0.046875 2.125 -0.140625 C 2.03125 -0.234375 1.984375 -0.347656 1.984375 -0.484375 L 1.984375 -5.125 L 3.03125 -5.125 L 3.03125 -0.484375 C 3.03125 -0.347656 2.976562 -0.234375 2.875 -0.140625 C 2.78125 -0.046875 2.65625 0 2.5 0 Z M 0.734375 -4.6875 C 0.585938 -4.6875 0.46875 -4.726562 0.375 -4.8125 C 0.28125 -4.894531 0.234375 -5.003906 0.234375 -5.140625 C 0.234375 -5.285156 0.28125 -5.394531 0.375 -5.46875 C 0.46875 -5.550781 0.585938 -5.59375 0.734375 -5.59375 L 4.28125 -5.59375 C 4.414062 -5.59375 4.53125 -5.550781 4.625 -5.46875 C 4.71875 -5.382812 4.765625 -5.273438 4.765625 -5.140625 C 4.765625 -4.992188 4.71875 -4.878906 4.625 -4.796875 C 4.53125 -4.722656 4.414062 -4.6875 4.28125 -4.6875 Z M 0.734375 -4.6875 "/></g></g></g><g fill="#ff0800" fill-opacity="1"><g transform="translate(66.849608, 8.538225)"><g><path d="M 1.59375 -0.484375 C 1.59375 -0.347656 1.539062 -0.234375 1.4375 -0.140625 C 1.34375 -0.046875 1.226562 0 1.09375 0 C 0.945312 0 0.828125 -0.046875 0.734375 -0.140625 C 0.640625 -0.234375 0.59375 -0.347656 0.59375 -0.484375 L 0.59375 -5.109375 C 0.59375 -5.242188 0.640625 -5.359375 0.734375 -5.453125 C 0.835938 -5.546875 0.960938 -5.59375 1.109375 -5.59375 C 1.234375 -5.59375 1.34375 -5.546875 1.4375 -5.453125 C 1.539062 -5.359375 1.59375 -5.242188 1.59375 -5.109375 Z M 1.59375 -0.484375 "/></g></g></g><g fill="#ff0800" fill-opacity="1"><g transform="translate(68.569651, 8.538225)"><g><path d="M 5.75 -2.796875 C 5.75 -2.398438 5.679688 -2.023438 5.546875 -1.671875 C 5.421875 -1.328125 5.234375 -1.023438 4.984375 -0.765625 C 4.742188 -0.503906 4.457031 -0.296875 4.125 -0.140625 C 3.789062 0.00390625 3.425781 0.078125 3.03125 0.078125 C 2.632812 0.078125 2.269531 0.00390625 1.9375 -0.140625 C 1.613281 -0.296875 1.328125 -0.503906 1.078125 -0.765625 C 0.835938 -1.023438 0.648438 -1.328125 0.515625 -1.671875 C 0.378906 -2.023438 0.3125 -2.398438 0.3125 -2.796875 C 0.3125 -3.203125 0.378906 -3.578125 0.515625 -3.921875 C 0.648438 -4.265625 0.835938 -4.566406 1.078125 -4.828125 C 1.328125 -5.097656 1.613281 -5.304688 1.9375 -5.453125 C 2.269531 -5.609375 2.632812 -5.6875 3.03125 -5.6875 C 3.425781 -5.6875 3.789062 -5.609375 4.125 -5.453125 C 4.457031 -5.304688 4.742188 -5.097656 4.984375 -4.828125 C 5.234375 -4.566406 5.421875 -4.265625 5.546875 -3.921875 C 5.679688 -3.578125 5.75 -3.203125 5.75 -2.796875 Z M 4.71875 -2.796875 C 4.71875 -3.160156 4.644531 -3.484375 4.5 -3.765625 C 4.351562 -4.054688 4.15625 -4.285156 3.90625 -4.453125 C 3.65625 -4.628906 3.363281 -4.71875 3.03125 -4.71875 C 2.695312 -4.71875 2.40625 -4.628906 2.15625 -4.453125 C 1.90625 -4.285156 1.707031 -4.054688 1.5625 -3.765625 C 1.425781 -3.484375 1.359375 -3.160156 1.359375 -2.796875 C 1.359375 -2.441406 1.425781 -2.117188 1.5625 -1.828125 C 1.707031 -1.535156 1.90625 -1.300781 2.15625 -1.125 C 2.40625 -0.957031 2.695312 -0.875 3.03125 -0.875 C 3.363281 -0.875 3.65625 -0.957031 3.90625 -1.125 C 4.15625 -1.300781 4.351562 -1.535156 4.5 -1.828125 C 4.644531 -2.117188 4.71875 -2.441406 4.71875 -2.796875 Z M 4.71875 -2.796875 "/></g></g></g><g fill="#ff0800" fill-opacity="1"><g transform="translate(74.161771, 8.538225)"><g><path d="M 4.84375 -5.59375 C 4.976562 -5.59375 5.082031 -5.550781 5.15625 -5.46875 C 5.238281 -5.382812 5.28125 -5.28125 5.28125 -5.15625 L 5.28125 -0.484375 C 5.28125 -0.347656 5.234375 -0.234375 5.140625 -0.140625 C 5.046875 -0.046875 4.929688 0 4.796875 0 C 4.722656 0 4.648438 -0.0078125 4.578125 -0.03125 C 4.503906 -0.0625 4.453125 -0.0976562 4.421875 -0.140625 L 1.265625 -4.125 L 1.484375 -4.25 L 1.484375 -0.453125 C 1.484375 -0.316406 1.441406 -0.207031 1.359375 -0.125 C 1.273438 -0.0390625 1.164062 0 1.03125 0 C 0.90625 0 0.800781 -0.0390625 0.71875 -0.125 C 0.632812 -0.207031 0.59375 -0.316406 0.59375 -0.453125 L 0.59375 -5.109375 C 0.59375 -5.242188 0.640625 -5.359375 0.734375 -5.453125 C 0.828125 -5.546875 0.945312 -5.59375 1.09375 -5.59375 C 1.164062 -5.59375 1.238281 -5.578125 1.3125 -5.546875 C 1.394531 -5.523438 1.457031 -5.484375 1.5 -5.421875 L 4.546875 -1.53125 L 4.40625 -1.4375 L 4.40625 -5.15625 C 4.40625 -5.28125 4.441406 -5.382812 4.515625 -5.46875 C 4.597656 -5.550781 4.707031 -5.59375 4.84375 -5.59375 Z M 4.84375 -5.59375 "/></g></g></g></g></g><g fill="#ff0800" fill-opacity="1"><g transform="translate(137.756765, 152.941821)"><g><path d="M 0.796875 -50.40625 C 3.671875 -50.0625 6.285156 -49.789062 8.640625 -49.59375 C 10.992188 -49.40625 13.257812 -49.3125 15.4375 -49.3125 C 17.625 -49.3125 19.894531 -49.40625 22.25 -49.59375 C 24.601562 -49.789062 27.21875 -50.0625 30.09375 -50.40625 C 28.894531 -47.28125 27.910156 -44.179688 27.140625 -41.109375 C 26.367188 -38.035156 25.84375 -34.722656 25.5625 -31.171875 C 24.019531 -33.578125 22.578125 -35.796875 21.234375 -37.828125 C 19.890625 -39.867188 18.554688 -41.515625 17.234375 -42.765625 C 15.921875 -44.015625 14.492188 -44.640625 12.953125 -44.640625 C 12.191406 -44.640625 11.507812 -44.125 10.90625 -43.09375 C 10.3125 -42.0625 9.832031 -40.765625 9.46875 -39.203125 C 9.101562 -37.640625 8.875 -36.019531 8.78125 -34.34375 C 8.6875 -32.664062 8.757812 -31.203125 9 -29.953125 C 9.289062 -28.316406 9.734375 -27.234375 10.328125 -26.703125 C 10.929688 -26.179688 12.023438 -26.144531 13.609375 -26.59375 C 15.191406 -27.050781 17.539062 -27.929688 20.65625 -29.234375 C 20.46875 -27.597656 20.070312 -25.988281 19.46875 -24.40625 C 18.875 -22.820312 18.117188 -21.40625 17.203125 -20.15625 C 15.910156 -21.457031 14.796875 -22.382812 13.859375 -22.9375 C 12.921875 -23.488281 12.140625 -23.765625 11.515625 -23.765625 C 10.265625 -23.765625 9.492188 -23.234375 9.203125 -22.171875 C 8.921875 -21.117188 8.972656 -19.75 9.359375 -18.0625 C 9.742188 -16.382812 10.316406 -14.585938 11.078125 -12.671875 C 11.847656 -10.753906 12.664062 -8.894531 13.53125 -7.09375 C 14.394531 -5.289062 15.160156 -3.753906 15.828125 -2.484375 C 16.503906 -1.210938 16.914062 -0.382812 17.0625 0 C 14.945312 -0.476562 13.0625 -0.800781 11.40625 -0.96875 C 9.75 -1.132812 8.082031 -1.132812 6.40625 -0.96875 C 4.726562 -0.800781 2.832031 -0.476562 0.71875 0 C 4.945312 -8.300781 7.0625 -16.722656 7.0625 -25.265625 C 7.0625 -29.640625 6.53125 -33.898438 5.46875 -38.046875 C 4.414062 -42.203125 2.859375 -46.320312 0.796875 -50.40625 Z M 0.796875 -50.40625 "/></g></g></g><g fill="#ff0800" fill-opacity="1"><g transform="translate(164.108753, 152.941821)"><g><path d="M 17.71875 -25.78125 C 17.71875 -26.164062 17.175781 -26.65625 16.09375 -27.25 C 15.007812 -27.851562 13.6875 -28.5625 12.125 -29.375 C 10.570312 -30.1875 9.003906 -31.109375 7.421875 -32.140625 C 5.835938 -33.179688 4.503906 -34.285156 3.421875 -35.453125 C 2.335938 -36.628906 1.796875 -37.890625 1.796875 -39.234375 C 1.796875 -41.109375 2.226562 -42.773438 3.09375 -44.234375 C 3.957031 -45.703125 5.097656 -46.941406 6.515625 -47.953125 C 7.929688 -48.960938 9.453125 -49.726562 11.078125 -50.25 C 12.710938 -50.78125 14.273438 -51.046875 15.765625 -51.046875 C 17.160156 -51.046875 18.300781 -51.007812 19.1875 -50.9375 C 20.070312 -50.863281 20.9375 -50.789062 21.78125 -50.71875 C 22.625 -50.644531 23.617188 -50.570312 24.765625 -50.5 C 25.921875 -50.4375 27.457031 -50.40625 29.375 -50.40625 C 27.40625 -47.039062 25.953125 -43.832031 25.015625 -40.78125 C 24.078125 -37.738281 23.5625 -34.367188 23.46875 -30.671875 C 22.269531 -33.796875 21.019531 -36.28125 19.71875 -38.125 C 18.425781 -39.96875 17.179688 -41.359375 15.984375 -42.296875 C 14.785156 -43.234375 13.679688 -43.859375 12.671875 -44.171875 C 11.660156 -44.484375 10.820312 -44.640625 10.15625 -44.640625 C 9.570312 -44.640625 9.113281 -44.316406 8.78125 -43.671875 C 8.445312 -43.023438 8.207031 -42.269531 8.0625 -41.40625 C 7.914062 -40.539062 7.84375 -39.816406 7.84375 -39.234375 C 7.84375 -37.648438 8.25 -36.28125 9.0625 -35.125 C 9.882812 -33.976562 10.90625 -32.960938 12.125 -32.078125 C 13.351562 -31.191406 14.566406 -30.375 15.765625 -29.625 C 16.960938 -28.882812 17.96875 -28.164062 18.78125 -27.46875 C 19.601562 -26.769531 20.015625 -26.015625 20.015625 -25.203125 C 20.015625 -24.097656 19.128906 -23.546875 17.359375 -23.546875 C 16.253906 -23.546875 15.132812 -23.710938 14 -24.046875 C 12.875 -24.378906 11.757812 -24.703125 10.65625 -25.015625 C 9.550781 -25.328125 8.421875 -25.484375 7.265625 -25.484375 C 5.492188 -25.484375 4.609375 -24.835938 4.609375 -23.546875 C 4.609375 -22.535156 5.023438 -21.332031 5.859375 -19.9375 C 6.703125 -18.550781 7.796875 -17.113281 9.140625 -15.625 C 10.484375 -14.132812 11.945312 -12.738281 13.53125 -11.4375 C 15.113281 -10.144531 16.648438 -9.09375 18.140625 -8.28125 C 19.628906 -7.46875 20.925781 -7.0625 22.03125 -7.0625 C 22.894531 -7.0625 23.492188 -7.3125 23.828125 -7.8125 C 24.171875 -8.3125 24.34375 -8.992188 24.34375 -9.859375 C 24.34375 -11.160156 23.910156 -12.757812 23.046875 -14.65625 C 22.179688 -16.550781 21.125 -18.457031 19.875 -20.375 C 21.988281 -20.757812 24.023438 -21.285156 25.984375 -21.953125 C 27.953125 -22.628906 29.679688 -23.425781 31.171875 -24.34375 C 30.984375 -19.875 30.429688 -16.195312 29.515625 -13.3125 C 28.609375 -10.4375 27.519531 -8.132812 26.25 -6.40625 C 24.976562 -4.675781 23.65625 -3.367188 22.28125 -2.484375 C 20.914062 -1.597656 19.628906 -0.9375 18.421875 -0.5 C 17.222656 -0.0703125 16.289062 0.332031 15.625 0.71875 C 13.5625 -0.289062 11.640625 -1.644531 9.859375 -3.34375 C 8.085938 -5.050781 6.515625 -6.925781 5.140625 -8.96875 C 3.773438 -11.007812 2.707031 -13.082031 1.9375 -15.1875 C 1.175781 -17.300781 0.796875 -19.296875 0.796875 -21.171875 C 0.796875 -23.566406 1.378906 -25.207031 2.546875 -26.09375 C 3.722656 -26.988281 5.109375 -27.4375 6.703125 -27.4375 C 7.992188 -27.4375 9.3125 -27.265625 10.65625 -26.921875 C 12 -26.585938 13.234375 -26.253906 14.359375 -25.921875 C 15.492188 -25.585938 16.347656 -25.421875 16.921875 -25.421875 C 17.453125 -25.421875 17.71875 -25.539062 17.71875 -25.78125 Z M 17.71875 -25.78125 "/></g></g></g><g fill="#ff0800" fill-opacity="1"><g transform="translate(191.540743, 152.941821)"><g><path d="M 17.71875 -25.78125 C 17.71875 -26.164062 17.175781 -26.65625 16.09375 -27.25 C 15.007812 -27.851562 13.6875 -28.5625 12.125 -29.375 C 10.570312 -30.1875 9.003906 -31.109375 7.421875 -32.140625 C 5.835938 -33.179688 4.503906 -34.285156 3.421875 -35.453125 C 2.335938 -36.628906 1.796875 -37.890625 1.796875 -39.234375 C 1.796875 -41.109375 2.226562 -42.773438 3.09375 -44.234375 C 3.957031 -45.703125 5.097656 -46.941406 6.515625 -47.953125 C 7.929688 -48.960938 9.453125 -49.726562 11.078125 -50.25 C 12.710938 -50.78125 14.273438 -51.046875 15.765625 -51.046875 C 17.160156 -51.046875 18.300781 -51.007812 19.1875 -50.9375 C 20.070312 -50.863281 20.9375 -50.789062 21.78125 -50.71875 C 22.625 -50.644531 23.617188 -50.570312 24.765625 -50.5 C 25.921875 -50.4375 27.457031 -50.40625 29.375 -50.40625 C 27.40625 -47.039062 25.953125 -43.832031 25.015625 -40.78125 C 24.078125 -37.738281 23.5625 -34.367188 23.46875 -30.671875 C 22.269531 -33.796875 21.019531 -36.28125 19.71875 -38.125 C 18.425781 -39.96875 17.179688 -41.359375 15.984375 -42.296875 C 14.785156 -43.234375 13.679688 -43.859375 12.671875 -44.171875 C 11.660156 -44.484375 10.820312 -44.640625 10.15625 -44.640625 C 9.570312 -44.640625 9.113281 -44.316406 8.78125 -43.671875 C 8.445312 -43.023438 8.207031 -42.269531 8.0625 -41.40625 C 7.914062 -40.539062 7.84375 -39.816406 7.84375 -39.234375 C 7.84375 -37.648438 8.25 -36.28125 9.0625 -35.125 C 9.882812 -33.976562 10.90625 -32.960938 12.125 -32.078125 C 13.351562 -31.191406 14.566406 -30.375 15.765625 -29.625 C 16.960938 -28.882812 17.96875 -28.164062 18.78125 -27.46875 C 19.601562 -26.769531 20.015625 -26.015625 20.015625 -25.203125 C 20.015625 -24.097656 19.128906 -23.546875 17.359375 -23.546875 C 16.253906 -23.546875 15.132812 -23.710938 14 -24.046875 C 12.875 -24.378906 11.757812 -24.703125 10.65625 -25.015625 C 9.550781 -25.328125 8.421875 -25.484375 7.265625 -25.484375 C 5.492188 -25.484375 4.609375 -24.835938 4.609375 -23.546875 C 4.609375 -22.535156 5.023438 -21.332031 5.859375 -19.9375 C 6.703125 -18.550781 7.796875 -17.113281 9.140625 -15.625 C 10.484375 -14.132812 11.945312 -12.738281 13.53125 -11.4375 C 15.113281 -10.144531 16.648438 -9.09375 18.140625 -8.28125 C 19.628906 -7.46875 20.925781 -7.0625 22.03125 -7.0625 C 22.894531 -7.0625 23.492188 -7.3125 23.828125 -7.8125 C 24.171875 -8.3125 24.34375 -8.992188 24.34375 -9.859375 C 24.34375 -11.160156 23.910156 -12.757812 23.046875 -14.65625 C 22.179688 -16.550781 21.125 -18.457031 19.875 -20.375 C 21.988281 -20.757812 24.023438 -21.285156 25.984375 -21.953125 C 27.953125 -22.628906 29.679688 -23.425781 31.171875 -24.34375 C 30.984375 -19.875 30.429688 -16.195312 29.515625 -13.3125 C 28.609375 -10.4375 27.519531 -8.132812 26.25 -6.40625 C 24.976562 -4.675781 23.65625 -3.367188 22.28125 -2.484375 C 20.914062 -1.597656 19.628906 -0.9375 18.421875 -0.5 C 17.222656 -0.0703125 16.289062 0.332031 15.625 0.71875 C 13.5625 -0.289062 11.640625 -1.644531 9.859375 -3.34375 C 8.085938 -5.050781 6.515625 -6.925781 5.140625 -8.96875 C 3.773438 -11.007812 2.707031 -13.082031 1.9375 -15.1875 C 1.175781 -17.300781 0.796875 -19.296875 0.796875 -21.171875 C 0.796875 -23.566406 1.378906 -25.207031 2.546875 -26.09375 C 3.722656 -26.988281 5.109375 -27.4375 6.703125 -27.4375 C 7.992188 -27.4375 9.3125 -27.265625 10.65625 -26.921875 C 12 -26.585938 13.234375 -26.253906 14.359375 -25.921875 C 15.492188 -25.585938 16.347656 -25.421875 16.921875 -25.421875 C 17.453125 -25.421875 17.71875 -25.539062 17.71875 -25.78125 Z M 17.71875 -25.78125 "/></g></g></g><g fill="#ff0800" fill-opacity="1"><g transform="translate(218.972733, 152.941821)"><g><path d="M 0.71875 0 C 5.1875 -8.15625 7.421875 -16.550781 7.421875 -25.1875 C 7.421875 -33.832031 5.1875 -42.238281 0.71875 -50.40625 C 2.875 -49.925781 4.71875 -49.597656 6.25 -49.421875 C 7.789062 -49.253906 9.328125 -49.253906 10.859375 -49.421875 C 12.398438 -49.597656 14.253906 -49.925781 16.421875 -50.40625 C 14.734375 -47.664062 13.382812 -44.710938 12.375 -41.546875 C 11.375 -38.378906 10.664062 -35.160156 10.25 -31.890625 C 9.84375 -28.628906 9.710938 -25.507812 9.859375 -22.53125 C 10.003906 -19.5625 10.375 -16.898438 10.96875 -14.546875 C 11.570312 -12.191406 12.390625 -10.328125 13.421875 -8.953125 C 14.453125 -7.585938 15.640625 -6.90625 16.984375 -6.90625 C 17.660156 -6.90625 18.3125 -7.445312 18.9375 -8.53125 C 19.5625 -9.613281 20.113281 -10.945312 20.59375 -12.53125 C 21.070312 -14.113281 21.453125 -15.695312 21.734375 -17.28125 C 22.023438 -18.863281 22.171875 -20.160156 22.171875 -21.171875 L 22.890625 -21.171875 C 22.890625 -19.242188 23.34375 -16.429688 24.25 -12.734375 C 25.164062 -9.046875 26.945312 -4.847656 29.59375 -0.140625 C 29.59375 -0.0976562 29.601562 -0.078125 29.625 -0.078125 C 29.644531 -0.078125 29.65625 -0.0507812 29.65625 0 C 26.632812 -0.382812 23.984375 -0.660156 21.703125 -0.828125 C 19.421875 -0.992188 17.25 -1.078125 15.1875 -1.078125 C 13.125 -1.078125 10.953125 -0.992188 8.671875 -0.828125 C 6.390625 -0.660156 3.738281 -0.382812 0.71875 0 Z M 0.71875 0 "/></g></g></g><g fill="#ff0800" fill-opacity="1"><g transform="translate(131.592703, 266.308166)"><g><path d="M 16.984375 -23.546875 C 16.503906 -23.546875 15.914062 -23.425781 15.21875 -23.1875 C 14.53125 -22.945312 13.875 -22.828125 13.25 -22.828125 C 12.769531 -22.828125 12.300781 -22.957031 11.84375 -23.21875 C 11.382812 -23.476562 11.15625 -23.921875 11.15625 -24.546875 C 11.15625 -25.609375 11.578125 -26.5 12.421875 -27.21875 C 13.265625 -27.9375 14.25 -28.609375 15.375 -29.234375 C 16.5 -29.859375 17.503906 -30.566406 18.390625 -31.359375 C 19.285156 -32.148438 19.816406 -33.15625 19.984375 -34.375 C 20.148438 -35.601562 19.679688 -37.175781 18.578125 -39.09375 C 17.328125 -41.257812 16.003906 -42.914062 14.609375 -44.0625 C 13.222656 -45.21875 11.90625 -45.796875 10.65625 -45.796875 C 9.882812 -45.796875 9.332031 -45.085938 9 -43.671875 C 8.664062 -42.253906 8.507812 -40.304688 8.53125 -37.828125 C 8.550781 -35.359375 8.765625 -32.5625 9.171875 -29.4375 C 9.585938 -26.320312 10.191406 -23.0625 10.984375 -19.65625 C 11.773438 -16.25 12.734375 -12.851562 13.859375 -9.46875 C 14.984375 -6.082031 16.289062 -2.925781 17.78125 0 C 14.5625 -0.71875 11.632812 -1.078125 9 -1.078125 C 7.75 -1.078125 6.460938 -0.992188 5.140625 -0.828125 C 3.828125 -0.660156 2.351562 -0.382812 0.71875 0 C 2.976562 -3.84375 4.71875 -7.945312 5.9375 -12.3125 C 7.164062 -16.675781 7.78125 -20.972656 7.78125 -25.203125 C 7.78125 -29.472656 7.164062 -33.765625 5.9375 -38.078125 C 4.71875 -42.398438 3.003906 -46.507812 0.796875 -50.40625 C 1.796875 -50.644531 3.015625 -50.820312 4.453125 -50.9375 C 5.898438 -51.0625 7.390625 -51.125 8.921875 -51.125 C 11.273438 -51.125 13.6875 -50.929688 16.15625 -50.546875 C 18.632812 -50.160156 20.941406 -49.519531 23.078125 -48.625 C 25.210938 -47.738281 26.9375 -46.53125 28.25 -45 C 29.570312 -43.46875 30.234375 -41.546875 30.234375 -39.234375 C 30.234375 -37.609375 29.691406 -36.179688 28.609375 -34.953125 C 27.535156 -33.734375 26.171875 -32.65625 24.515625 -31.71875 C 22.859375 -30.78125 21.164062 -29.925781 19.4375 -29.15625 C 17.707031 -28.394531 16.21875 -27.648438 14.96875 -26.921875 C 13.289062 -26.015625 12.453125 -25.25 12.453125 -24.625 C 12.453125 -24.382812 12.617188 -24.265625 12.953125 -24.265625 C 13.484375 -24.265625 14.347656 -24.488281 15.546875 -24.9375 C 16.753906 -25.394531 17.882812 -25.625 18.9375 -25.625 C 20.519531 -25.625 21.957031 -25 23.25 -23.75 C 24.550781 -22.507812 25.71875 -20.878906 26.75 -18.859375 C 27.78125 -16.847656 28.691406 -14.675781 29.484375 -12.34375 C 30.273438 -10.019531 30.957031 -7.765625 31.53125 -5.578125 C 32.113281 -3.390625 32.570312 -1.53125 32.90625 0 C 30.457031 -0.71875 28.128906 -1.078125 25.921875 -1.078125 C 23.660156 -1.078125 21.304688 -0.71875 18.859375 0 C 19.054688 -0.8125 19.25 -1.984375 19.4375 -3.515625 C 19.632812 -5.054688 19.800781 -6.765625 19.9375 -8.640625 C 20.082031 -10.515625 20.15625 -12.363281 20.15625 -14.1875 C 20.15625 -16.820312 19.925781 -19.039062 19.46875 -20.84375 C 19.019531 -22.644531 18.191406 -23.546875 16.984375 -23.546875 Z M 16.984375 -23.546875 "/></g></g></g><g fill="#ff0800" fill-opacity="1"><g transform="translate(160.752694, 266.308166)"><g><path d="M 0.71875 -25.34375 C 0.71875 -30.53125 1.316406 -35.054688 2.515625 -38.921875 C 3.710938 -42.785156 5.390625 -45.785156 7.546875 -47.921875 C 9.710938 -50.054688 12.1875 -51.125 14.96875 -51.125 C 17.707031 -51.125 20.15625 -50.078125 22.3125 -47.984375 C 24.476562 -45.898438 26.171875 -42.945312 27.390625 -39.125 C 28.617188 -35.3125 29.234375 -30.8125 29.234375 -25.625 C 29.234375 -20.445312 28.617188 -15.875 27.390625 -11.90625 C 26.171875 -7.945312 24.476562 -4.851562 22.3125 -2.625 C 20.15625 -0.394531 17.707031 0.71875 14.96875 0.71875 C 12.238281 0.71875 9.789062 -0.367188 7.625 -2.546875 C 5.46875 -4.734375 3.773438 -7.78125 2.546875 -11.6875 C 1.328125 -15.601562 0.71875 -20.15625 0.71875 -25.34375 Z M 21.890625 -5.6875 C 22.796875 -5.6875 23.453125 -6.203125 23.859375 -7.234375 C 24.273438 -8.265625 24.484375 -9.644531 24.484375 -11.375 C 24.484375 -14.207031 24.144531 -17.207031 23.46875 -20.375 C 22.800781 -23.539062 21.890625 -26.625 20.734375 -29.625 C 19.585938 -32.625 18.304688 -35.347656 16.890625 -37.796875 C 15.472656 -40.242188 14.019531 -42.1875 12.53125 -43.625 C 11.039062 -45.070312 9.625 -45.796875 8.28125 -45.796875 C 7.507812 -45.796875 6.929688 -45.179688 6.546875 -43.953125 C 6.160156 -42.734375 5.96875 -41.140625 5.96875 -39.171875 C 5.96875 -36.910156 6.207031 -34.316406 6.6875 -31.390625 C 7.175781 -28.460938 7.875 -25.5 8.78125 -22.5 C 9.695312 -19.5 10.800781 -16.726562 12.09375 -14.1875 C 13.394531 -11.644531 14.875 -9.59375 16.53125 -8.03125 C 18.1875 -6.46875 19.972656 -5.6875 21.890625 -5.6875 Z M 21.890625 -5.6875 "/></g></g></g><g fill="#ff0800" fill-opacity="1"><g transform="translate(186.240688, 266.308166)"><g><path d="M 0.71875 -25.34375 C 0.71875 -30.53125 1.316406 -35.054688 2.515625 -38.921875 C 3.710938 -42.785156 5.390625 -45.785156 7.546875 -47.921875 C 9.710938 -50.054688 12.1875 -51.125 14.96875 -51.125 C 17.707031 -51.125 20.15625 -50.078125 22.3125 -47.984375 C 24.476562 -45.898438 26.171875 -42.945312 27.390625 -39.125 C 28.617188 -35.3125 29.234375 -30.8125 29.234375 -25.625 C 29.234375 -20.445312 28.617188 -15.875 27.390625 -11.90625 C 26.171875 -7.945312 24.476562 -4.851562 22.3125 -2.625 C 20.15625 -0.394531 17.707031 0.71875 14.96875 0.71875 C 12.238281 0.71875 9.789062 -0.367188 7.625 -2.546875 C 5.46875 -4.734375 3.773438 -7.78125 2.546875 -11.6875 C 1.328125 -15.601562 0.71875 -20.15625 0.71875 -25.34375 Z M 21.890625 -5.6875 C 22.796875 -5.6875 23.453125 -6.203125 23.859375 -7.234375 C 24.273438 -8.265625 24.484375 -9.644531 24.484375 -11.375 C 24.484375 -14.207031 24.144531 -17.207031 23.46875 -20.375 C 22.800781 -23.539062 21.890625 -26.625 20.734375 -29.625 C 19.585938 -32.625 18.304688 -35.347656 16.890625 -37.796875 C 15.472656 -40.242188 14.019531 -42.1875 12.53125 -43.625 C 11.039062 -45.070312 9.625 -45.796875 8.28125 -45.796875 C 7.507812 -45.796875 6.929688 -45.179688 6.546875 -43.953125 C 6.160156 -42.734375 5.96875 -41.140625 5.96875 -39.171875 C 5.96875 -36.910156 6.207031 -34.316406 6.6875 -31.390625 C 7.175781 -28.460938 7.875 -25.5 8.78125 -22.5 C 9.695312 -19.5 10.800781 -16.726562 12.09375 -14.1875 C 13.394531 -11.644531 14.875 -9.59375 16.53125 -8.03125 C 18.1875 -6.46875 19.972656 -5.6875 21.890625 -5.6875 Z M 21.890625 -5.6875 "/></g></g></g><g fill="#ff0800" fill-opacity="1"><g transform="translate(211.728681, 266.308166)"><g><path d="M 0.71875 0 C 2.976562 -3.882812 4.71875 -8 5.9375 -12.34375 C 7.164062 -16.6875 7.78125 -20.972656 7.78125 -25.203125 C 7.78125 -29.472656 7.164062 -33.765625 5.9375 -38.078125 C 4.71875 -42.398438 2.976562 -46.507812 0.71875 -50.40625 C 1.101562 -50.40625 1.703125 -50.460938 2.515625 -50.578125 C 3.335938 -50.703125 4.203125 -50.820312 5.109375 -50.9375 C 6.023438 -51.0625 6.816406 -51.125 7.484375 -51.125 C 10.023438 -51.125 11.859375 -50.140625 12.984375 -48.171875 C 14.117188 -46.203125 14.6875 -43.800781 14.6875 -40.96875 C 14.6875 -38.945312 14.816406 -36.75 15.078125 -34.375 C 15.347656 -32 15.6875 -29.742188 16.09375 -27.609375 C 16.5 -25.472656 16.941406 -23.71875 17.421875 -22.34375 C 17.898438 -20.976562 18.378906 -20.296875 18.859375 -20.296875 C 19.335938 -20.296875 19.816406 -20.976562 20.296875 -22.34375 C 20.785156 -23.71875 21.234375 -25.472656 21.640625 -27.609375 C 22.046875 -29.742188 22.378906 -32 22.640625 -34.375 C 22.910156 -36.75 23.046875 -38.945312 23.046875 -40.96875 C 23.046875 -43.800781 23.617188 -46.203125 24.765625 -48.171875 C 25.921875 -50.140625 27.742188 -51.125 30.234375 -51.125 C 30.953125 -51.125 31.753906 -51.0625 32.640625 -50.9375 C 33.535156 -50.820312 34.390625 -50.703125 35.203125 -50.578125 C 36.023438 -50.460938 36.628906 -50.40625 37.015625 -50.40625 C 34.804688 -46.507812 33.078125 -42.398438 31.828125 -38.078125 C 30.578125 -33.765625 29.953125 -29.472656 29.953125 -25.203125 C 29.953125 -20.972656 30.578125 -16.6875 31.828125 -12.34375 C 33.078125 -8 34.804688 -3.882812 37.015625 0 C 35.328125 -0.382812 33.785156 -0.660156 32.390625 -0.828125 C 31.003906 -0.992188 29.640625 -1.078125 28.296875 -1.078125 C 26.953125 -1.078125 25.570312 -0.992188 24.15625 -0.828125 C 22.738281 -0.660156 21.191406 -0.382812 19.515625 0 C 21.578125 -3.882812 23.195312 -7.695312 24.375 -11.4375 C 25.550781 -15.1875 26.398438 -18.671875 26.921875 -21.890625 C 27.453125 -25.109375 27.71875 -27.820312 27.71875 -30.03125 C 27.71875 -31.75 27.597656 -33.097656 27.359375 -34.078125 C 27.117188 -35.066406 26.757812 -35.5625 26.28125 -35.5625 C 25.800781 -35.5625 25.359375 -34.972656 24.953125 -33.796875 C 24.546875 -32.628906 24.132812 -31.179688 23.71875 -29.453125 C 23.3125 -27.722656 22.878906 -25.992188 22.421875 -24.265625 C 21.972656 -22.535156 21.457031 -21.082031 20.875 -19.90625 C 20.300781 -18.726562 19.628906 -18.140625 18.859375 -18.140625 C 18.097656 -18.140625 17.425781 -18.726562 16.84375 -19.90625 C 16.269531 -21.082031 15.753906 -22.535156 15.296875 -24.265625 C 14.835938 -25.992188 14.40625 -27.722656 14 -29.453125 C 13.59375 -31.179688 13.1875 -32.628906 12.78125 -33.796875 C 12.375 -34.972656 11.929688 -35.5625 11.453125 -35.5625 C 10.972656 -35.5625 10.613281 -35.054688 10.375 -34.046875 C 10.132812 -33.046875 10.015625 -31.679688 10.015625 -29.953125 C 10.015625 -27.742188 10.273438 -25.03125 10.796875 -21.8125 C 11.328125 -18.59375 12.191406 -15.113281 13.390625 -11.375 C 14.585938 -7.632812 16.21875 -3.84375 18.28125 0 C 16.5625 -0.382812 15.003906 -0.660156 13.609375 -0.828125 C 12.210938 -0.992188 10.84375 -1.078125 9.5 -1.078125 C 8.15625 -1.078125 6.773438 -0.992188 5.359375 -0.828125 C 3.941406 -0.660156 2.394531 -0.382812 0.71875 0 Z M 0.71875 0 "/></g></g></g></svg>